<svg width="40" height="25" viewBox="0 0 40 25" fill="none" xmlns="http://www.w3.org/2000/svg">
<rect x="0.5" y="0.5" width="39" height="24" rx="4.5" fill="#3B393D" stroke="#BDBDBE"/>
<path d="M12.4066 7.09091V18H10.4304V9.01385H10.3665L7.81499 10.6438V8.83274L10.5263 7.09091H12.4066ZM19.0543 18.1491C18.2624 18.1491 17.5593 18.016 16.945 17.7496C16.3342 17.4833 15.8548 17.1193 15.5067 16.6577C15.1623 16.1925 14.9918 15.6651 14.9954 15.0756C14.9918 14.6175 15.0913 14.1967 15.2937 13.8132C15.4961 13.4297 15.7695 13.1101 16.114 12.8544C16.462 12.5952 16.8491 12.43 17.2752 12.359V12.2844C16.7141 12.1602 16.2596 11.8743 15.9116 11.4268C15.5671 10.9759 15.3967 10.4556 15.4002 9.86612C15.3967 9.30504 15.5529 8.80433 15.869 8.36399C16.185 7.92365 16.6183 7.57741 17.1687 7.32528C17.7191 7.0696 18.3477 6.94176 19.0543 6.94176C19.7539 6.94176 20.3771 7.0696 20.924 7.32528C21.4744 7.57741 21.9077 7.92365 22.2237 8.36399C22.5433 8.80433 22.7031 9.30504 22.7031 9.86612C22.7031 10.4556 22.5273 10.9759 22.1758 11.4268C21.8278 11.8743 21.3786 12.1602 20.8281 12.2844V12.359C21.2543 12.43 21.6378 12.5952 21.9787 12.8544C22.3232 13.1101 22.5966 13.4297 22.799 13.8132C23.005 14.1967 23.108 14.6175 23.108 15.0756C23.108 15.6651 22.9339 16.1925 22.5859 16.6577C22.2379 17.1193 21.7585 17.4833 21.1477 17.7496C20.5405 18.016 19.8427 18.1491 19.0543 18.1491ZM19.0543 16.6257C19.4627 16.6257 19.8178 16.5565 20.1197 16.418C20.4215 16.2759 20.6559 16.0771 20.8228 15.8214C20.9897 15.5657 21.0749 15.271 21.0785 14.9371C21.0749 14.5891 20.9844 14.282 20.8068 14.0156C20.6328 13.7457 20.3931 13.5344 20.0877 13.3817C19.7859 13.229 19.4414 13.1527 19.0543 13.1527C18.6637 13.1527 18.3157 13.229 18.0103 13.3817C17.7049 13.5344 17.4634 13.7457 17.2859 14.0156C17.1119 14.282 17.0266 14.5891 17.0302 14.9371C17.0266 15.271 17.1083 15.5657 17.2752 15.8214C17.4421 16.0735 17.6765 16.2706 17.9783 16.4126C18.2837 16.5547 18.6424 16.6257 19.0543 16.6257ZM19.0543 11.6559C19.3881 11.6559 19.6829 11.5884 19.9386 11.4535C20.1978 11.3185 20.402 11.1303 20.5511 10.8888C20.7003 10.6474 20.7766 10.3686 20.7802 10.0526C20.7766 9.74006 20.7021 9.46662 20.5565 9.23224C20.4109 8.99432 20.2085 8.81143 19.9492 8.68359C19.69 8.5522 19.3917 8.48651 19.0543 8.48651C18.7099 8.48651 18.4063 8.5522 18.1435 8.68359C17.8842 8.81143 17.6818 8.99432 17.5362 9.23224C17.3942 9.46662 17.3249 9.74006 17.3285 10.0526C17.3249 10.3686 17.396 10.6474 17.5415 10.8888C17.6907 11.1268 17.8949 11.315 18.1541 11.4535C18.4169 11.5884 18.717 11.6559 19.0543 11.6559ZM28.0977 16.2528V8.88068H29.7703V16.2528H28.0977ZM25.248 13.4031V11.7305H32.6201V13.4031H25.248Z" fill="#BDBDBE"/>
</svg>
