<svg width="40" height="22" viewBox="0 0 40 22" fill="none" xmlns="http://www.w3.org/2000/svg">
<rect x="0.5" y="0.5" width="39" height="21" rx="4.5" fill="#262428" stroke="white"/>
<path d="M12.4066 5.09091V16H10.4304V7.01385H10.3665L7.81499 8.64382V6.83274L10.5263 5.09091H12.4066ZM19.0543 16.1491C18.2624 16.1491 17.5593 16.016 16.945 15.7496C16.3342 15.4833 15.8548 15.1193 15.5067 14.6577C15.1623 14.1925 14.9918 13.6651 14.9954 13.0756C14.9918 12.6175 15.0913 12.1967 15.2937 11.8132C15.4961 11.4297 15.7695 11.1101 16.114 10.8544C16.462 10.5952 16.8491 10.43 17.2752 10.359V10.2844C16.7141 10.1602 16.2596 9.87429 15.9116 9.42685C15.5671 8.97585 15.3967 8.45561 15.4002 7.86612C15.3967 7.30504 15.5529 6.80433 15.869 6.36399C16.185 5.92365 16.6183 5.57741 17.1687 5.32528C17.7191 5.0696 18.3477 4.94176 19.0543 4.94176C19.7539 4.94176 20.3771 5.0696 20.924 5.32528C21.4744 5.57741 21.9077 5.92365 22.2237 6.36399C22.5433 6.80433 22.7031 7.30504 22.7031 7.86612C22.7031 8.45561 22.5273 8.97585 22.1758 9.42685C21.8278 9.87429 21.3786 10.1602 20.8281 10.2844V10.359C21.2543 10.43 21.6378 10.5952 21.9787 10.8544C22.3232 11.1101 22.5966 11.4297 22.799 11.8132C23.005 12.1967 23.108 12.6175 23.108 13.0756C23.108 13.6651 22.9339 14.1925 22.5859 14.6577C22.2379 15.1193 21.7585 15.4833 21.1477 15.7496C20.5405 16.016 19.8427 16.1491 19.0543 16.1491ZM19.0543 14.6257C19.4627 14.6257 19.8178 14.5565 20.1197 14.418C20.4215 14.2759 20.6559 14.0771 20.8228 13.8214C20.9897 13.5657 21.0749 13.271 21.0785 12.9371C21.0749 12.5891 20.9844 12.282 20.8068 12.0156C20.6328 11.7457 20.3931 11.5344 20.0877 11.3817C19.7859 11.229 19.4414 11.1527 19.0543 11.1527C18.6637 11.1527 18.3157 11.229 18.0103 11.3817C17.7049 11.5344 17.4634 11.7457 17.2859 12.0156C17.1119 12.282 17.0266 12.5891 17.0302 12.9371C17.0266 13.271 17.1083 13.5657 17.2752 13.8214C17.4421 14.0735 17.6765 14.2706 17.9783 14.4126C18.2837 14.5547 18.6424 14.6257 19.0543 14.6257ZM19.0543 9.65589C19.3881 9.65589 19.6829 9.58842 19.9386 9.45348C20.1978 9.31854 20.402 9.13033 20.5511 8.88885C20.7003 8.64737 20.7766 8.36861 20.7802 8.05256C20.7766 7.74006 20.7021 7.46662 20.5565 7.23224C20.4109 6.99432 20.2085 6.81143 19.9492 6.68359C19.69 6.5522 19.3917 6.48651 19.0543 6.48651C18.7099 6.48651 18.4063 6.5522 18.1435 6.68359C17.8842 6.81143 17.6818 6.99432 17.5362 7.23224C17.3942 7.46662 17.3249 7.74006 17.3285 8.05256C17.3249 8.36861 17.396 8.64737 17.5415 8.88885C17.6907 9.12678 17.8949 9.31499 18.1541 9.45348C18.4169 9.58842 18.717 9.65589 19.0543 9.65589ZM28.0977 14.2528V6.88068H29.7703V14.2528H28.0977ZM25.248 11.4031V9.73047H32.6201V11.4031H25.248Z" fill="white"/>
</svg>
