<svg width="91" height="31" viewBox="0 0 91 31" fill="none" xmlns="http://www.w3.org/2000/svg">
<path d="M7.5 19.6125C6.9875 19.6125 6.5625 19.1875 6.5625 18.675V13.3125C6.5625 12.8 6.9875 12.375 7.5 12.375C8.0125 12.375 8.4375 12.8 8.4375 13.3125V18.675C8.4375 19.2 8.0125 19.6125 7.5 19.6125Z" fill="#BDBDBE"/>
<path d="M11.25 21.3999C10.7375 21.3999 10.3125 20.9749 10.3125 20.4624V11.5374C10.3125 11.0249 10.7375 10.5999 11.25 10.5999C11.7625 10.5999 12.1875 11.0249 12.1875 11.5374V20.4624C12.1875 20.9874 11.7625 21.3999 11.25 21.3999Z" fill="#BDBDBE"/>
<path d="M15 23.1875C14.4875 23.1875 14.0625 22.7625 14.0625 22.25V9.75C14.0625 9.2375 14.4875 8.8125 15 8.8125C15.5125 8.8125 15.9375 9.2375 15.9375 9.75V22.25C15.9375 22.7625 15.5125 23.1875 15 23.1875Z" fill="#BDBDBE"/>
<path d="M18.75 21.3999C18.2375 21.3999 17.8125 20.9749 17.8125 20.4624V11.5374C17.8125 11.0249 18.2375 10.5999 18.75 10.5999C19.2625 10.5999 19.6875 11.0249 19.6875 11.5374V20.4624C19.6875 20.9874 19.2625 21.3999 18.75 21.3999Z" fill="#BDBDBE"/>
<path d="M22.5 19.6125C21.9875 19.6125 21.5625 19.1875 21.5625 18.675V13.3125C21.5625 12.8 21.9875 12.375 22.5 12.375C23.0125 12.375 23.4375 12.8 23.4375 13.3125V18.675C23.4375 19.2 23.0125 19.6125 22.5 19.6125Z" fill="#BDBDBE"/>
<path d="M15 29.4375C7.5875 29.4375 1.5625 23.4125 1.5625 16C1.5625 8.5875 7.5875 2.5625 15 2.5625C22.4125 2.5625 28.4375 8.5875 28.4375 16C28.4375 23.4125 22.4125 29.4375 15 29.4375ZM15 4.4375C8.625 4.4375 3.4375 9.625 3.4375 16C3.4375 22.375 8.625 27.5625 15 27.5625C21.375 27.5625 26.5625 22.375 26.5625 16C26.5625 9.625 21.375 4.4375 15 4.4375Z" fill="#BDBDBE"/>
<path d="M36.4148 12H35.3068L38.5114 3.27273H39.6023L42.8068 12H41.6989L39.0909 4.65341H39.0227L36.4148 12ZM36.8239 8.59091H41.2898V9.52841H36.8239V8.59091ZM48.1548 9.32386V5.45455H49.1605V12H48.1548V10.892H48.0866C47.9332 11.2244 47.6946 11.5071 47.3707 11.7401C47.0469 11.9702 46.6378 12.0852 46.1435 12.0852C45.7344 12.0852 45.3707 11.9957 45.0526 11.8168C44.7344 11.6349 44.4844 11.3622 44.3026 10.9986C44.1207 10.6321 44.0298 10.1705 44.0298 9.61364V5.45455H45.0355V9.54545C45.0355 10.0227 45.169 10.4034 45.4361 10.6875C45.706 10.9716 46.0497 11.1136 46.4673 11.1136C46.7173 11.1136 46.9716 11.0497 47.2301 10.9219C47.4915 10.794 47.7102 10.598 47.8864 10.3338C48.0653 10.0696 48.1548 9.73295 48.1548 9.32386ZM53.4741 12.1364C52.9286 12.1364 52.4471 11.9986 52.0295 11.723C51.6119 11.4446 51.2852 11.0526 51.0494 10.5469C50.8136 10.0384 50.6957 9.4375 50.6957 8.74432C50.6957 8.05682 50.8136 7.46023 51.0494 6.95455C51.2852 6.44886 51.6133 6.05824 52.0337 5.78267C52.4542 5.5071 52.94 5.36932 53.4911 5.36932C53.9173 5.36932 54.2539 5.44034 54.5011 5.58239C54.7511 5.72159 54.9414 5.88068 55.0721 6.05966C55.2056 6.2358 55.3093 6.38068 55.3832 6.49432H55.4684V3.27273H56.4741V12H55.5025V10.9943H55.3832C55.3093 11.1136 55.2042 11.2642 55.0678 11.446C54.9315 11.625 54.7369 11.7855 54.484 11.9276C54.2312 12.0668 53.8945 12.1364 53.4741 12.1364ZM53.6104 11.233C54.0138 11.233 54.3548 11.1278 54.6332 10.9176C54.9116 10.7045 55.1232 10.4105 55.2681 10.0355C55.413 9.65767 55.4854 9.22159 55.4854 8.72727C55.4854 8.23864 55.4144 7.81108 55.2724 7.4446C55.1303 7.07528 54.9201 6.78835 54.6417 6.58381C54.3633 6.37642 54.0195 6.27273 53.6104 6.27273C53.1843 6.27273 52.8292 6.3821 52.5451 6.60085C52.2638 6.81676 52.0522 7.1108 51.9102 7.48295C51.771 7.85227 51.7013 8.26705 51.7013 8.72727C51.7013 9.19318 51.7724 9.61648 51.9144 9.99716C52.0593 10.375 52.2724 10.6761 52.5536 10.9006C52.8377 11.1222 53.19 11.233 53.6104 11.233ZM58.4556 12V5.45455H59.4613V12H58.4556ZM58.967 4.36364C58.771 4.36364 58.6019 4.29688 58.4599 4.16335C58.3207 4.02983 58.2511 3.86932 58.2511 3.68182C58.2511 3.49432 58.3207 3.33381 58.4599 3.20028C58.6019 3.06676 58.771 3 58.967 3C59.163 3 59.3306 3.06676 59.4698 3.20028C59.6119 3.33381 59.6829 3.49432 59.6829 3.68182C59.6829 3.86932 59.6119 4.02983 59.4698 4.16335C59.3306 4.29688 59.163 4.36364 58.967 4.36364ZM63.9624 12.1364C63.3714 12.1364 62.853 11.9957 62.407 11.7145C61.9638 11.4332 61.6172 11.0398 61.3672 10.5341C61.12 10.0284 60.9964 9.4375 60.9964 8.76136C60.9964 8.07955 61.12 7.48437 61.3672 6.97585C61.6172 6.46733 61.9638 6.07244 62.407 5.79119C62.853 5.50994 63.3714 5.36932 63.9624 5.36932C64.5533 5.36932 65.0703 5.50994 65.5135 5.79119C65.9595 6.07244 66.3061 6.46733 66.5533 6.97585C66.8033 7.48437 66.9283 8.07955 66.9283 8.76136C66.9283 9.4375 66.8033 10.0284 66.5533 10.5341C66.3061 11.0398 65.9595 11.4332 65.5135 11.7145C65.0703 11.9957 64.5533 12.1364 63.9624 12.1364ZM63.9624 11.233C64.4112 11.233 64.7805 11.1179 65.0703 10.8878C65.3601 10.6577 65.5746 10.3551 65.7138 9.98011C65.853 9.60511 65.9226 9.19886 65.9226 8.76136C65.9226 8.32386 65.853 7.91619 65.7138 7.53835C65.5746 7.16051 65.3601 6.85511 65.0703 6.62216C64.7805 6.3892 64.4112 6.27273 63.9624 6.27273C63.5135 6.27273 63.1442 6.3892 62.8544 6.62216C62.5646 6.85511 62.3501 7.16051 62.2109 7.53835C62.0717 7.91619 62.0021 8.32386 62.0021 8.76136C62.0021 9.19886 62.0717 9.60511 62.2109 9.98011C62.3501 10.3551 62.5646 10.6577 62.8544 10.8878C63.1442 11.1179 63.5135 11.233 63.9624 11.233Z" fill="#BDBDBE"/>
<path d="M42.4716 18.5625C42.4186 18.0663 42.1951 17.6799 41.8011 17.4034C41.411 17.1269 40.9034 16.9886 40.2784 16.9886C39.839 16.9886 39.4621 17.0549 39.1477 17.1875C38.8333 17.3201 38.5928 17.5 38.4261 17.7273C38.2595 17.9545 38.1742 18.214 38.1705 18.5057C38.1705 18.7481 38.2254 18.9583 38.3352 19.1364C38.4489 19.3144 38.6023 19.4659 38.7955 19.5909C38.9886 19.7121 39.2027 19.8144 39.4375 19.8977C39.6723 19.9811 39.9091 20.0511 40.1477 20.108L41.2386 20.3807C41.678 20.483 42.1004 20.6212 42.5057 20.7955C42.9148 20.9697 43.2803 21.1894 43.6023 21.4545C43.928 21.7197 44.1856 22.0398 44.375 22.4148C44.5644 22.7898 44.6591 23.2292 44.6591 23.733C44.6591 24.4148 44.4848 25.0152 44.1364 25.5341C43.7879 26.0492 43.2841 26.4527 42.625 26.7443C41.9697 27.0322 41.1761 27.1761 40.2443 27.1761C39.339 27.1761 38.553 27.036 37.8864 26.7557C37.2235 26.4754 36.7045 26.0663 36.3295 25.5284C35.9583 24.9905 35.7576 24.3352 35.7273 23.5625H37.8011C37.8314 23.9678 37.9564 24.3049 38.1761 24.5739C38.3958 24.8428 38.6818 25.0436 39.0341 25.1761C39.3902 25.3087 39.7879 25.375 40.2273 25.375C40.6856 25.375 41.0871 25.3068 41.4318 25.1705C41.7803 25.0303 42.053 24.8371 42.25 24.5909C42.447 24.3409 42.5473 24.0492 42.5511 23.7159C42.5473 23.4129 42.4583 23.1629 42.2841 22.9659C42.1098 22.7652 41.8655 22.5985 41.5511 22.4659C41.2405 22.3295 40.8769 22.2083 40.4602 22.1023L39.1364 21.7614C38.178 21.5152 37.4205 21.142 36.8636 20.642C36.3106 20.1383 36.0341 19.4697 36.0341 18.6364C36.0341 17.9508 36.2197 17.3504 36.5909 16.8352C36.9659 16.3201 37.4754 15.9205 38.1193 15.6364C38.7633 15.3485 39.4924 15.2045 40.3068 15.2045C41.1326 15.2045 41.8561 15.3485 42.4773 15.6364C43.1023 15.9205 43.5928 16.3163 43.9489 16.8239C44.3049 17.3277 44.4886 17.9072 44.5 18.5625H42.4716ZM46.4474 30.2727V18.2727H48.4702V19.7159H48.5895C48.6955 19.5038 48.8452 19.2784 49.0384 19.0398C49.2315 18.7973 49.4929 18.5909 49.8224 18.4205C50.152 18.2462 50.5724 18.1591 51.0838 18.1591C51.758 18.1591 52.366 18.3314 52.9077 18.6761C53.4531 19.017 53.8849 19.5227 54.2031 20.1932C54.5251 20.8598 54.6861 21.678 54.6861 22.6477C54.6861 23.6061 54.5289 24.4205 54.2145 25.0909C53.9001 25.7614 53.4721 26.2727 52.9304 26.625C52.3887 26.9773 51.7751 27.1534 51.0895 27.1534C50.5895 27.1534 50.1747 27.0701 49.8452 26.9034C49.5156 26.7367 49.2505 26.536 49.0497 26.3011C48.8527 26.0625 48.6993 25.8371 48.5895 25.625H48.5043V30.2727H46.4474ZM48.4645 22.6364C48.4645 23.2008 48.544 23.6951 48.7031 24.1193C48.866 24.5436 49.099 24.875 49.402 25.1136C49.7088 25.3485 50.08 25.4659 50.5156 25.4659C50.9702 25.4659 51.3509 25.3447 51.6577 25.1023C51.9645 24.8561 52.1955 24.5208 52.3509 24.0966C52.5099 23.6686 52.5895 23.1818 52.5895 22.6364C52.5895 22.0947 52.5118 21.6136 52.3565 21.1932C52.2012 20.7727 51.9702 20.4432 51.6634 20.2045C51.3565 19.9659 50.974 19.8466 50.5156 19.8466C50.0762 19.8466 49.7031 19.9621 49.3963 20.1932C49.0895 20.4242 48.8565 20.7481 48.6974 21.1648C48.5421 21.5814 48.4645 22.072 48.4645 22.6364ZM58.9588 27.1761C58.4058 27.1761 57.9077 27.0777 57.4645 26.8807C57.0251 26.6799 56.6766 26.3845 56.419 25.9943C56.1652 25.6042 56.0384 25.1231 56.0384 24.5511C56.0384 24.0587 56.1293 23.6515 56.3111 23.3295C56.4929 23.0076 56.741 22.75 57.0554 22.5568C57.3698 22.3636 57.724 22.2178 58.1179 22.1193C58.5156 22.017 58.9266 21.9432 59.3509 21.8977C59.8622 21.8447 60.277 21.7973 60.5952 21.7557C60.9134 21.7102 61.1444 21.642 61.2884 21.5511C61.4361 21.4564 61.5099 21.3106 61.5099 21.1136V21.0795C61.5099 20.6515 61.383 20.3201 61.1293 20.0852C60.8755 19.8504 60.5099 19.733 60.0327 19.733C59.5289 19.733 59.1293 19.8428 58.8338 20.0625C58.5421 20.2822 58.3452 20.5417 58.2429 20.8409L56.3224 20.5682C56.474 20.0379 56.724 19.5947 57.0724 19.2386C57.4209 18.8788 57.8471 18.6098 58.3509 18.4318C58.8546 18.25 59.4115 18.1591 60.0213 18.1591C60.4418 18.1591 60.8603 18.2083 61.277 18.3068C61.6937 18.4053 62.0743 18.5682 62.419 18.7955C62.7637 19.0189 63.0402 19.3239 63.2486 19.7102C63.4607 20.0966 63.5668 20.5795 63.5668 21.1591V27H61.5895V25.8011H61.5213C61.3963 26.0436 61.2202 26.2708 60.9929 26.483C60.7694 26.6913 60.4872 26.8598 60.1463 26.9886C59.8092 27.1136 59.4134 27.1761 58.9588 27.1761ZM59.4929 25.6648C59.9058 25.6648 60.2637 25.5833 60.5668 25.4205C60.8698 25.2538 61.1027 25.0341 61.2656 24.7614C61.4323 24.4886 61.5156 24.1913 61.5156 23.8693V22.8409C61.4512 22.8939 61.3414 22.9432 61.1861 22.9886C61.0346 23.0341 60.8641 23.0739 60.6747 23.108C60.4853 23.142 60.2978 23.1723 60.1122 23.1989C59.9266 23.2254 59.7656 23.2481 59.6293 23.267C59.3224 23.3087 59.0478 23.3769 58.8054 23.4716C58.563 23.5663 58.3717 23.6989 58.2315 23.8693C58.0914 24.036 58.0213 24.2519 58.0213 24.517C58.0213 24.8958 58.1596 25.1818 58.4361 25.375C58.7126 25.5682 59.0649 25.6648 59.4929 25.6648ZM72.5327 20.5795L70.6577 20.7841C70.6046 20.5947 70.5118 20.4167 70.3793 20.25C70.2505 20.0833 70.0762 19.9489 69.8565 19.8466C69.6368 19.7443 69.3679 19.6932 69.0497 19.6932C68.6217 19.6932 68.2618 19.786 67.9702 19.9716C67.6823 20.1572 67.5402 20.3977 67.544 20.6932C67.5402 20.947 67.633 21.1534 67.8224 21.3125C68.0156 21.4716 68.3338 21.6023 68.777 21.7045L70.2656 22.0227C71.0914 22.2008 71.705 22.483 72.1065 22.8693C72.5118 23.2557 72.7164 23.7614 72.7202 24.3864C72.7164 24.9356 72.5554 25.4205 72.2372 25.8409C71.9228 26.2576 71.4853 26.5833 70.9247 26.8182C70.3641 27.053 69.7202 27.1705 68.9929 27.1705C67.9247 27.1705 67.0649 26.947 66.4134 26.5C65.7618 26.0492 65.3736 25.4223 65.2486 24.6193L67.2543 24.4261C67.3452 24.8201 67.5384 25.1174 67.8338 25.3182C68.1293 25.5189 68.5137 25.6193 68.9872 25.6193C69.4759 25.6193 69.8679 25.5189 70.1634 25.3182C70.4626 25.1174 70.6122 24.8693 70.6122 24.5739C70.6122 24.3239 70.5156 24.1174 70.3224 23.9545C70.133 23.7917 69.8376 23.6667 69.4361 23.5795L67.9474 23.267C67.1103 23.0928 66.491 22.7992 66.0895 22.3864C65.688 21.9697 65.4891 21.4432 65.4929 20.8068C65.4891 20.2689 65.6349 19.803 65.9304 19.4091C66.2296 19.0114 66.6444 18.7045 67.1747 18.4886C67.7088 18.2689 68.3243 18.1591 69.0213 18.1591C70.044 18.1591 70.849 18.3769 71.4361 18.8125C72.027 19.2481 72.3925 19.8371 72.5327 20.5795ZM74.4162 27V18.2727H76.473V27H74.4162ZM75.4503 17.0341C75.1245 17.0341 74.8442 16.9261 74.6094 16.7102C74.3745 16.4905 74.2571 16.2273 74.2571 15.9205C74.2571 15.6098 74.3745 15.3466 74.6094 15.1307C74.8442 14.911 75.1245 14.8011 75.4503 14.8011C75.7798 14.8011 76.0601 14.911 76.2912 15.1307C76.526 15.3466 76.6435 15.6098 76.6435 15.9205C76.6435 16.2273 76.526 16.4905 76.2912 16.7102C76.0601 16.9261 75.7798 17.0341 75.4503 17.0341ZM81.0994 27.1761C80.5464 27.1761 80.0483 27.0777 79.6051 26.8807C79.1657 26.6799 78.8172 26.3845 78.5597 25.9943C78.3059 25.6042 78.179 25.1231 78.179 24.5511C78.179 24.0587 78.2699 23.6515 78.4517 23.3295C78.6335 23.0076 78.8816 22.75 79.196 22.5568C79.5104 22.3636 79.8646 22.2178 80.2585 22.1193C80.6563 22.017 81.0672 21.9432 81.4915 21.8977C82.0028 21.8447 82.4176 21.7973 82.7358 21.7557C83.054 21.7102 83.285 21.642 83.429 21.5511C83.5767 21.4564 83.6506 21.3106 83.6506 21.1136V21.0795C83.6506 20.6515 83.5237 20.3201 83.2699 20.0852C83.0161 19.8504 82.6506 19.733 82.1733 19.733C81.6695 19.733 81.2699 19.8428 80.9744 20.0625C80.6828 20.2822 80.4858 20.5417 80.3835 20.8409L78.4631 20.5682C78.6146 20.0379 78.8646 19.5947 79.2131 19.2386C79.5616 18.8788 79.9877 18.6098 80.4915 18.4318C80.9953 18.25 81.5521 18.1591 82.1619 18.1591C82.5824 18.1591 83.0009 18.2083 83.4176 18.3068C83.8343 18.4053 84.215 18.5682 84.5597 18.7955C84.9044 19.0189 85.1809 19.3239 85.3892 19.7102C85.6013 20.0966 85.7074 20.5795 85.7074 21.1591V27H83.7301V25.8011H83.6619C83.5369 26.0436 83.3608 26.2708 83.1335 26.483C82.91 26.6913 82.6278 26.8598 82.2869 26.9886C81.9498 27.1136 81.554 27.1761 81.0994 27.1761ZM81.6335 25.6648C82.0464 25.6648 82.4044 25.5833 82.7074 25.4205C83.0104 25.2538 83.2434 25.0341 83.4062 24.7614C83.5729 24.4886 83.6562 24.1913 83.6562 23.8693V22.8409C83.5919 22.8939 83.482 22.9432 83.3267 22.9886C83.1752 23.0341 83.0047 23.0739 82.8153 23.108C82.6259 23.142 82.4384 23.1723 82.2528 23.1989C82.0672 23.2254 81.9063 23.2481 81.7699 23.267C81.4631 23.3087 81.1884 23.3769 80.946 23.4716C80.7036 23.5663 80.5123 23.6989 80.3722 23.8693C80.232 24.036 80.1619 24.2519 80.1619 24.517C80.1619 24.8958 80.3002 25.1818 80.5767 25.375C80.8532 25.5682 81.2055 25.6648 81.6335 25.6648ZM89.8324 15.3636V27H87.7756V15.3636H89.8324Z" fill="#BDBDBE"/>
</svg>
