<svg width="45" height="45" viewBox="0 0 45 45" fill="none" xmlns="http://www.w3.org/2000/svg">
<path d="M17.1938 29.2125C16.8375 29.2125 16.4813 29.0813 16.2 28.8C15.6563 28.2563 15.6563 27.3563 16.2 26.8125L26.8125 16.2C27.3563 15.6563 28.2563 15.6563 28.8 16.2C29.3438 16.7438 29.3438 17.6438 28.8 18.1875L18.1875 28.8C17.925 29.0813 17.55 29.2125 17.1938 29.2125Z" fill="white"/>
<path d="M27.8063 29.2125C27.45 29.2125 27.0938 29.0813 26.8125 28.8L16.2 18.1875C15.6563 17.6438 15.6563 16.7438 16.2 16.2C16.7438 15.6563 17.6438 15.6563 18.1875 16.2L28.8 26.8125C29.3438 27.3563 29.3438 28.2563 28.8 28.8C28.5188 29.0813 28.1625 29.2125 27.8063 29.2125Z" fill="white"/>
<path d="M22.5 3.75C12.1687 3.75 3.75 12.1687 3.75 22.5C3.75 32.8313 12.1687 41.25 22.5 41.25C32.8313 41.25 41.25 32.8313 41.25 22.5C41.25 12.1687 32.8313 3.75 22.5 3.75ZM28.8 26.8125C29.3438 27.3563 29.3438 28.2562 28.8 28.8C28.5187 29.0812 28.1625 29.2125 27.8062 29.2125C27.45 29.2125 27.0938 29.0812 26.8125 28.8L22.5 24.4875L18.1875 28.8C17.9062 29.0812 17.55 29.2125 17.1938 29.2125C16.8375 29.2125 16.4813 29.0812 16.2 28.8C15.6563 28.2562 15.6563 27.3563 16.2 26.8125L20.5125 22.5L16.2 18.1875C15.6563 17.6437 15.6563 16.7438 16.2 16.2C16.7438 15.6563 17.6437 15.6563 18.1875 16.2L22.5 20.5125L26.8125 16.2C27.3563 15.6563 28.2562 15.6563 28.8 16.2C29.3438 16.7438 29.3438 17.6437 28.8 18.1875L24.4875 22.5L28.8 26.8125Z" fill="#151318"/>
</svg>
