<svg width="35" height="20" viewBox="0 0 35 20" fill="none" xmlns="http://www.w3.org/2000/svg">
<rect x="0.5" y="0.5" width="34" height="19" rx="4.5" fill="#262428" stroke="#BDBDBE"/>
<path d="M8.93253 15V5.54545H10.6452V9.54794H15.0263V5.54545H16.7436V15H15.0263V10.9837H10.6452V15H8.93253ZM21.8102 15H18.6064V5.54545H21.8748C22.8135 5.54545 23.6199 5.73473 24.2939 6.11328C24.9709 6.48875 25.4911 7.02888 25.8542 7.73366C26.2174 8.43845 26.399 9.28172 26.399 10.2635C26.399 11.2483 26.2159 12.0947 25.8496 12.8026C25.4864 13.5104 24.9617 14.0536 24.2754 14.4322C23.5922 14.8107 22.7704 15 21.8102 15ZM20.3191 13.5181H21.7271C22.3857 13.5181 22.9351 13.3981 23.3752 13.158C23.8153 12.9149 24.1461 12.5533 24.3677 12.0732C24.5893 11.59 24.7001 10.9867 24.7001 10.2635C24.7001 9.54025 24.5893 8.9401 24.3677 8.46307C24.1461 7.98295 23.8184 7.62441 23.3844 7.38743C22.9535 7.14737 22.418 7.02734 21.7779 7.02734H20.3191V13.5181Z" fill="#BDBDBE"/>
</svg>
