<svg width="34" height="20" viewBox="0 0 34 20" fill="none" xmlns="http://www.w3.org/2000/svg">
<rect x="0.5" y="0.5" width="33" height="19" rx="4.5" fill="#3B393D" stroke="#BDBDBE"/>
<path d="M8.00426 15V4.81818H9.84872V9.12855H14.5668V4.81818H16.4162V15H14.5668V10.6747H9.84872V15H8.00426ZM21.8725 15H18.4222V4.81818H21.9421C22.953 4.81818 23.8214 5.02202 24.5472 5.42969C25.2764 5.83404 25.8365 6.41572 26.2276 7.17472C26.6187 7.93371 26.8143 8.84186 26.8143 9.89915C26.8143 10.9598 26.6171 11.8712 26.2227 12.6335C25.8316 13.3958 25.2665 13.9808 24.5273 14.3885C23.7915 14.7962 22.9066 15 21.8725 15ZM20.2667 13.4041H21.783C22.4923 13.4041 23.0839 13.2749 23.5579 13.0163C24.0318 12.7545 24.3881 12.3651 24.6268 11.848C24.8654 11.3277 24.9847 10.678 24.9847 9.89915C24.9847 9.12026 24.8654 8.47396 24.6268 7.96023C24.3881 7.44318 24.0352 7.05706 23.5678 6.80185C23.1038 6.54332 22.5271 6.41406 21.8377 6.41406H20.2667V13.4041Z" fill="#BDBDBE"/>
</svg>
