<svg width="28" height="28" viewBox="0 0 28 28" fill="none" xmlns="http://www.w3.org/2000/svg">
<path d="M15.0383 6.86001H5.96163C3.96663 6.86001 2.33331 8.49332 2.33331 10.4883V23.7417C2.33331 25.4333 3.54664 26.1567 5.02831 25.3283L9.6133 22.7733C10.1033 22.505 10.8966 22.505 11.375 22.7733L15.96 25.3283C17.4416 26.1567 18.655 25.4333 18.655 23.7417V10.4883C18.6666 8.49332 17.0333 6.86001 15.0383 6.86001Z" stroke="white" stroke-width="1.5" stroke-linecap="round" stroke-linejoin="round"/>
<path d="M18.6666 10.4883V23.7417C18.6666 25.4333 17.4533 26.145 15.9716 25.3283L11.3867 22.7733C10.8967 22.505 10.1033 22.505 9.6133 22.7733L5.02831 25.3283C3.54664 26.145 2.33331 25.4333 2.33331 23.7417V10.4883C2.33331 8.49332 3.96663 6.86001 5.96163 6.86001H15.0383C17.0333 6.86001 18.6666 8.49332 18.6666 10.4883Z" stroke="white" stroke-width="1.5" stroke-linecap="round" stroke-linejoin="round"/>
<path d="M25.6666 5.96165V19.215C25.6666 20.9067 24.4533 21.6183 22.9716 20.8017L18.6666 18.3983V10.4883C18.6666 8.49332 17.0333 6.86001 15.0383 6.86001H9.33331V5.96165C9.33331 3.96665 10.9666 2.33334 12.9616 2.33334H22.0383C24.0333 2.33334 25.6666 3.96665 25.6666 5.96165Z" stroke="white" stroke-width="1.5" stroke-linecap="round" stroke-linejoin="round"/>
</svg>
