<svg width="26" height="26" viewBox="0 0 26 26" fill="none" xmlns="http://www.w3.org/2000/svg">
<path d="M9.08911 20.0308V9.02418C9.08911 8.59085 9.21911 8.16835 9.45744 7.81085L12.4149 3.41251C12.8808 2.70835 14.0399 2.21001 15.0258 2.57835C16.0874 2.93585 16.7916 4.12751 16.5641 5.18918L16.0008 8.73168C15.9574 9.05668 16.0441 9.34918 16.2283 9.57668C16.4124 9.78251 16.6833 9.91251 16.9758 9.91251H21.4283C22.2841 9.91251 23.0208 10.2592 23.4541 10.8658C23.8658 11.4508 23.9416 12.2092 23.6708 12.9783L21.0058 21.0925C20.6699 22.4358 19.2074 23.53 17.7558 23.53H13.5308C12.8049 23.53 11.7866 23.2808 11.3208 22.815L9.93411 21.7425C9.40328 21.3417 9.08911 20.7025 9.08911 20.0308Z" fill="white"/>
<path d="M5.64413 6.91168H4.52829C2.84913 6.91168 2.16663 7.56168 2.16663 9.16502V20.0633C2.16663 21.6667 2.84913 22.3167 4.52829 22.3167H5.64413C7.32329 22.3167 8.00579 21.6667 8.00579 20.0633V9.16502C8.00579 7.56168 7.32329 6.91168 5.64413 6.91168Z" fill="white"/>
</svg>
