<svg width="26" height="26" viewBox="0 0 26 26" fill="none" xmlns="http://www.w3.org/2000/svg">
<path d="M8.10339 19.8792L11.4617 22.4792C11.8951 22.9125 12.8701 23.1292 13.5201 23.1292H17.6367C18.9367 23.1292 20.3451 22.1542 20.6701 20.8542L23.2701 12.9458C23.8117 11.4292 22.8367 10.1292 21.2117 10.1292H16.8784C16.2284 10.1292 15.6867 9.58751 15.7951 8.82917L16.3367 5.36251C16.5534 4.38751 15.9034 3.30417 14.9284 2.97917C14.0617 2.65417 12.9784 3.08751 12.5451 3.73751L8.10339 10.3458" stroke="white" stroke-width="1.5" stroke-miterlimit="10"/>
<path d="M2.57837 19.8792V9.2625C2.57837 7.74583 3.22837 7.20416 4.74504 7.20416H5.82837C7.34504 7.20416 7.99504 7.74583 7.99504 9.2625V19.8792C7.99504 21.3958 7.34504 21.9375 5.82837 21.9375H4.74504C3.22837 21.9375 2.57837 21.3958 2.57837 19.8792Z" stroke="white" stroke-width="1.5" stroke-linecap="round" stroke-linejoin="round"/>
</svg>
