<svg width="28" height="28" viewBox="0 0 28 28" fill="none" xmlns="http://www.w3.org/2000/svg">
<path d="M12.425 22.295V5.705C12.425 4.13 11.76 3.5 10.08 3.5H5.845C4.165 3.5 3.5 4.13 3.5 5.705V22.295C3.5 23.87 4.165 24.5 5.845 24.5H10.08C11.76 24.5 12.425 23.87 12.425 22.295Z" fill="white"/>
<path d="M24.5 22.295V5.705C24.5 4.13 23.835 3.5 22.155 3.5H17.92C16.2516 3.5 15.575 4.13 15.575 5.705V22.295C15.575 23.87 16.24 24.5 17.92 24.5H22.155C23.835 24.5 24.5 23.87 24.5 22.295Z" fill="white"/>
</svg>
