<svg width="26" height="26" viewBox="0 0 26 26" fill="none" xmlns="http://www.w3.org/2000/svg">
<path d="M12.9675 2.16666C6.98749 2.16666 2.13416 7.01999 2.13416 13C2.13416 18.98 6.98749 23.8333 12.9675 23.8333C18.9475 23.8333 23.8008 18.98 23.8008 13C23.8008 7.01999 18.9583 2.16666 12.9675 2.16666ZM16.2175 15.4158L13.0758 17.225C12.6858 17.4525 12.2525 17.5608 11.83 17.5608C11.3967 17.5608 10.9742 17.4525 10.5842 17.225C9.80415 16.77 9.33832 15.9683 9.33832 15.0583V11.4292C9.33832 10.53 9.80415 9.71749 10.5842 9.26249C11.3642 8.80749 12.2958 8.80749 13.0867 9.26249L16.2283 11.0717C17.0083 11.5267 17.4742 12.3283 17.4742 13.2383C17.4742 14.1483 17.0083 14.9608 16.2175 15.4158Z" fill="white"/>
</svg>
