<svg width="180" height="78" viewBox="0 0 180 78" fill="none" xmlns="http://www.w3.org/2000/svg">
<g clip-path="url(#clip0_701_763)">
<path d="M171.818 0H8.18182C3.66312 0 0 3.67426 0 8.20669V47.5988C0 52.1312 3.66312 55.8055 8.18182 55.8055H171.818C176.337 55.8055 180 52.1312 180 47.5988V8.20669C180 3.67426 176.337 0 171.818 0Z" fill="white"/>
<path d="M90 77.1428L78.663 53.7538H101.337L90 77.1428Z" fill="white"/>
<path d="M35.2771 24.0815C35.2119 23.4706 34.9377 22.995 34.4543 22.6547C33.9753 22.3143 33.3525 22.1441 32.5854 22.1441C32.0462 22.1441 31.5836 22.2257 31.1978 22.3888C30.8119 22.5521 30.5167 22.7736 30.3122 23.0534C30.1076 23.3331 30.0031 23.6525 29.9983 24.0116C29.9983 24.31 30.0657 24.5687 30.2006 24.788C30.34 25.0071 30.5283 25.1935 30.7654 25.3475C31.0025 25.4967 31.2652 25.6226 31.5533 25.7252C31.8417 25.8278 32.1321 25.9141 32.425 25.984L33.7639 26.3197C34.3031 26.4456 34.8215 26.6158 35.3189 26.8303C35.821 27.0448 36.2695 27.3151 36.6647 27.6416C37.0645 27.9681 37.3806 28.362 37.613 28.8237C37.8455 29.2852 37.9617 29.8262 37.9617 30.4463C37.9617 31.2857 37.7478 32.0248 37.3202 32.6636C36.8925 33.2976 36.2743 33.7943 35.4654 34.1533C34.6611 34.5076 33.6872 34.6849 32.5435 34.6849C31.4326 34.6849 30.4679 34.5124 29.6498 34.1674C28.8362 33.8222 28.1993 33.3187 27.7391 32.6565C27.2836 31.9944 27.0371 31.1877 27 30.2366H29.5452C29.5823 30.7355 29.7357 31.1505 30.0053 31.4815C30.275 31.8126 30.626 32.0598 31.0583 32.2229C31.4953 32.386 31.9834 32.4676 32.5227 32.4676C33.0851 32.4676 33.5779 32.3838 34.001 32.2158C34.4286 32.0433 34.7634 31.8055 35.0051 31.5025C35.2468 31.1948 35.37 30.8356 35.3747 30.4253C35.37 30.0524 35.2609 29.7446 35.047 29.5021C34.8331 29.255 34.5332 29.0499 34.1475 28.8866C33.7662 28.7188 33.32 28.5694 32.8086 28.439L31.1839 28.0193C30.0076 27.7163 29.0779 27.2569 28.3945 26.6414C27.7159 26.0213 27.3765 25.1983 27.3765 24.1725C27.3765 23.3285 27.6043 22.5894 28.0599 21.9552C28.52 21.3211 29.1453 20.8291 29.9356 20.4795C30.7258 20.1251 31.6208 19.9478 32.6203 19.9478C33.6337 19.9478 34.5215 20.1251 35.2841 20.4795C36.0511 20.8291 36.6531 21.3164 37.09 21.9412C37.5271 22.5613 37.7525 23.2748 37.7665 24.0815H35.2771ZM43.2386 34.6849C42.5599 34.6849 41.9487 34.5636 41.4047 34.3212C40.8654 34.074 40.4378 33.7104 40.1217 33.23C39.8101 32.7498 39.6545 32.1576 39.6545 31.4536C39.6545 30.8473 39.7659 30.346 39.9891 29.9498C40.2123 29.5534 40.5169 29.2363 40.9025 28.9985C41.2884 28.7607 41.7232 28.5813 42.2066 28.46C42.6947 28.3341 43.1992 28.2431 43.7197 28.1872C44.3474 28.1219 44.8563 28.0636 45.2469 28.0124C45.6374 27.9564 45.9209 27.8724 46.0977 27.7606C46.279 27.6439 46.3696 27.4645 46.3696 27.2219V27.1801C46.3696 26.653 46.2139 26.2451 45.9023 25.9559C45.5909 25.6669 45.1424 25.5223 44.5565 25.5223C43.9383 25.5223 43.4477 25.6576 43.0853 25.928C42.7273 26.1984 42.4856 26.5178 42.3601 26.8863L40.003 26.5504C40.1891 25.8977 40.4959 25.3521 40.9235 24.9139C41.3512 24.4709 41.8742 24.1398 42.4924 23.9207C43.1108 23.6968 43.7942 23.5849 44.5426 23.5849C45.0586 23.5849 45.5722 23.6454 46.0836 23.7667C46.595 23.888 47.0623 24.0884 47.4853 24.3683C47.9083 24.6434 48.2477 25.0187 48.5033 25.4944C48.7636 25.9699 48.8939 26.5646 48.8939 27.2779V34.4681H46.4672V32.9924H46.3835C46.2301 33.2908 46.0139 33.5704 45.7351 33.8316C45.4608 34.0881 45.1144 34.2956 44.696 34.4541C44.2823 34.6079 43.7965 34.6849 43.2386 34.6849ZM43.8941 32.8245C44.4008 32.8245 44.8401 32.7242 45.2121 32.5236C45.5839 32.3184 45.8699 32.0481 46.0697 31.7123C46.2742 31.3766 46.3765 31.0106 46.3765 30.6142V29.3483C46.2975 29.4136 46.1626 29.4742 45.9722 29.5301C45.7861 29.5861 45.577 29.635 45.3445 29.677C45.1121 29.7189 44.882 29.7563 44.6542 29.7888C44.4265 29.8215 44.2288 29.8495 44.0614 29.8728C43.6849 29.924 43.3479 30.0081 43.0503 30.1246C42.7528 30.2412 42.5181 30.4043 42.3461 30.6142C42.174 30.8194 42.0881 31.0851 42.0881 31.4116C42.0881 31.8779 42.2578 32.23 42.5972 32.4676C42.9364 32.7055 43.3689 32.8245 43.8941 32.8245ZM52.6174 38.4967C52.2735 38.4967 51.955 38.4688 51.6621 38.4129C51.374 38.3617 51.1439 38.3009 50.9719 38.231L51.5576 36.2586C51.9248 36.366 52.2525 36.4172 52.5409 36.4126C52.829 36.4078 53.0823 36.3169 53.3009 36.1398C53.524 35.9673 53.7123 35.6781 53.8657 35.2725L54.0818 34.692L50.1977 23.7247H52.8755L55.3439 31.8382H55.4555L57.931 23.7247H60.6157L56.3272 35.769C56.1273 36.3379 55.8623 36.8252 55.5323 37.2308C55.2022 37.6411 54.7977 37.9536 54.3189 38.1682C53.8447 38.3873 53.2775 38.4967 52.6174 38.4967ZM65.1377 34.6849C64.459 34.6849 63.8478 34.5636 63.3039 34.3212C62.7645 34.074 62.3369 33.7104 62.0208 33.23C61.7092 32.7498 61.5536 32.1576 61.5536 31.4536C61.5536 30.8473 61.6652 30.346 61.8883 29.9498C62.1115 29.5534 62.416 29.2363 62.8018 28.9985C63.1877 28.7607 63.6223 28.5813 64.1057 28.46C64.5938 28.3341 65.0983 28.2431 65.619 28.1872C66.2465 28.1219 66.7556 28.0636 67.1461 28.0124C67.5365 27.9564 67.8201 27.8724 67.9968 27.7606C68.1781 27.6439 68.2688 27.4645 68.2688 27.2219V27.1801C68.2688 26.653 68.113 26.2451 67.8016 25.9559C67.49 25.6669 67.0415 25.5223 66.4557 25.5223C65.8375 25.5223 65.347 25.6576 64.9844 25.928C64.6264 26.1984 64.3847 26.5178 64.2592 26.8863L61.9022 26.5504C62.0882 25.8977 62.395 25.3521 62.8226 24.9139C63.2504 24.4709 63.7733 24.1398 64.3917 23.9207C65.0099 23.6968 65.6933 23.5849 66.4418 23.5849C66.9577 23.5849 67.4715 23.6454 67.9829 23.7667C68.4943 23.888 68.9614 24.0884 69.3844 24.3683C69.8074 24.6434 70.1468 25.0187 70.4024 25.4944C70.6628 25.9699 70.793 26.5646 70.793 27.2779V34.4681H68.3663V32.9924H68.2827C68.1292 33.2908 67.913 33.5704 67.6342 33.8316C67.3599 34.0881 67.0135 34.2956 66.5951 34.4541C66.1814 34.6079 65.6956 34.6849 65.1377 34.6849ZM65.7933 32.8245C66.2999 32.8245 66.7393 32.7242 67.1112 32.5236C67.4831 32.3184 67.769 32.0481 67.9688 31.7123C68.1734 31.3766 68.2756 31.0106 68.2756 30.6142V29.3483C68.1966 29.4136 68.0618 29.4742 67.8713 29.5301C67.6852 29.5861 67.4761 29.635 67.2436 29.677C67.0112 29.7189 66.7811 29.7563 66.5534 29.7888C66.3256 29.8215 66.1279 29.8495 65.9607 29.8728C65.584 29.924 65.2471 30.0081 64.9496 30.1246C64.6519 30.2412 64.4173 30.4043 64.2453 30.6142C64.0731 30.8194 63.9872 31.0851 63.9872 31.4116C63.9872 31.8779 64.1569 32.23 64.4963 32.4676C64.8357 32.7055 65.268 32.8245 65.7933 32.8245ZM86.6674 26.5646L84.3662 26.8163C84.3012 26.5831 84.1873 26.364 84.0245 26.1588C83.8664 25.9536 83.6525 25.788 83.383 25.6621C83.1134 25.5363 82.7833 25.4734 82.3929 25.4734C81.8674 25.4734 81.4259 25.5876 81.0679 25.8161C80.7146 26.0446 80.5403 26.3407 80.5449 26.7044C80.5403 27.0167 80.6542 27.271 80.8866 27.4668C81.1237 27.6626 81.5141 27.8235 82.0581 27.9494L83.8851 28.341C84.8985 28.5603 85.6515 28.9076 86.1444 29.3832C86.6418 29.8589 86.8929 30.4813 86.8975 31.2507C86.8929 31.9268 86.6952 32.5236 86.3048 33.0413C85.9189 33.5542 85.382 33.9552 84.6939 34.2442C84.006 34.5334 83.2156 34.6778 82.323 34.6778C81.0121 34.6778 79.9568 34.4028 79.1573 33.8526C78.3578 33.2976 77.8812 32.5261 77.7278 31.5375L80.1893 31.2996C80.3009 31.7847 80.5379 32.1507 80.9005 32.3977C81.2631 32.6449 81.735 32.7685 82.3161 32.7685C82.9158 32.7685 83.3969 32.6449 83.7596 32.3977C84.1268 32.1507 84.3104 31.8452 84.3104 31.4815C84.3104 31.1738 84.1919 30.9197 83.9548 30.7191C83.7224 30.5185 83.3598 30.3647 82.8669 30.2576L81.0401 29.8728C80.0126 29.6583 79.2525 29.2969 78.7598 28.7887C78.2671 28.2758 78.023 27.6276 78.0275 26.8442C78.023 26.1821 78.202 25.6086 78.5646 25.1236C78.9318 24.634 79.4409 24.2563 80.0917 23.9906C80.7472 23.7201 81.5025 23.5849 82.358 23.5849C83.6131 23.5849 84.601 23.8531 85.3215 24.3893C86.0467 24.9255 86.4954 25.6505 86.6674 26.5646ZM95.8056 29.9498V23.7247H98.3299V34.4681H95.8824V32.5586H95.7708C95.5291 33.1601 95.1316 33.652 94.5784 34.0344C94.0299 34.4167 93.3534 34.6079 92.5491 34.6079C91.8473 34.6079 91.2266 34.4518 90.6874 34.1393C90.1527 33.8222 89.7344 33.363 89.4322 32.7614C89.1299 32.1553 88.9789 31.4232 88.9789 30.5653V23.7247H91.5032V30.1735C91.5032 30.8544 91.6892 31.3952 92.061 31.7963C92.4329 32.1973 92.9211 32.3977 93.5254 32.3977C93.8973 32.3977 94.2577 32.3068 94.6062 32.1249C94.9549 31.9431 95.2408 31.6727 95.464 31.3136C95.6918 30.9499 95.8056 30.4952 95.8056 29.9498ZM103.227 31.0968L103.22 28.0403H103.624L107.473 23.7247H110.423L105.688 29.0124H105.165L103.227 31.0968ZM100.926 34.4681V20.1436H103.45V34.4681H100.926ZM107.648 34.4681L104.161 29.579L105.863 27.7956L110.667 34.4681H107.648ZM115.188 34.6849C114.509 34.6849 113.897 34.5636 113.354 34.3212C112.814 34.074 112.387 33.7104 112.07 33.23C111.759 32.7498 111.603 32.1576 111.603 31.4536C111.603 30.8473 111.715 30.346 111.938 29.9498C112.161 29.5534 112.466 29.2363 112.851 28.9985C113.237 28.7607 113.672 28.5813 114.155 28.46C114.644 28.3341 115.148 28.2431 115.669 28.1872C116.296 28.1219 116.805 28.0636 117.196 28.0124C117.586 27.9564 117.87 27.8724 118.046 27.7606C118.228 27.6439 118.318 27.4645 118.318 27.2219V27.1801C118.318 26.653 118.163 26.2451 117.851 25.9559C117.54 25.6669 117.091 25.5223 116.505 25.5223C115.887 25.5223 115.397 25.6576 115.034 25.928C114.676 26.1984 114.434 26.5178 114.309 26.8863L111.952 26.5504C112.138 25.8977 112.445 25.3521 112.872 24.9139C113.3 24.4709 113.823 24.1398 114.441 23.9207C115.06 23.6968 115.743 23.5849 116.491 23.5849C117.008 23.5849 117.521 23.6454 118.033 23.7667C118.544 23.888 119.011 24.0884 119.434 24.3683C119.857 24.6434 120.196 25.0187 120.452 25.4944C120.713 25.9699 120.843 26.5646 120.843 27.2779V34.4681H118.416V32.9924H118.332C118.179 33.2908 117.963 33.5704 117.684 33.8316C117.41 34.0881 117.063 34.2956 116.645 34.4541C116.231 34.6079 115.745 34.6849 115.188 34.6849ZM115.843 32.8245C116.35 32.8245 116.789 32.7242 117.161 32.5236C117.533 32.3184 117.819 32.0481 118.019 31.7123C118.223 31.3766 118.325 31.0106 118.325 30.6142V29.3483C118.246 29.4136 118.112 29.4742 117.921 29.5301C117.735 29.5861 117.526 29.635 117.293 29.677C117.061 29.7189 116.831 29.7563 116.603 29.7888C116.375 29.8215 116.178 29.8495 116.01 29.8728C115.634 29.924 115.297 30.0081 114.999 30.1246C114.702 30.2412 114.467 30.4043 114.295 30.6142C114.123 30.8194 114.037 31.0851 114.037 31.4116C114.037 31.8779 114.207 32.23 114.546 32.4676C114.885 32.7055 115.318 32.8245 115.843 32.8245ZM128.252 34.4681V23.7247H130.776V34.4681H128.252ZM129.521 22.2001C129.121 22.2001 128.777 22.0671 128.489 21.8014C128.201 21.5309 128.056 21.2069 128.056 20.8291C128.056 20.4468 128.201 20.1226 128.489 19.8569C128.777 19.5864 129.121 19.4513 129.521 19.4513C129.925 19.4513 130.269 19.5864 130.553 19.8569C130.841 20.1226 130.985 20.4468 130.985 20.8291C130.985 21.2069 130.841 21.5309 130.553 21.8014C130.269 22.0671 129.925 22.2001 129.521 22.2001ZM135.896 28.1732V34.4681H133.372V23.7247H135.784V25.5504H135.91C136.156 24.9488 136.549 24.4709 137.088 24.1165C137.632 23.7621 138.304 23.5849 139.104 23.5849C139.843 23.5849 140.487 23.7434 141.035 24.0605C141.588 24.3776 142.016 24.8369 142.318 25.4384C142.625 26.04 142.776 26.7697 142.771 27.6276V34.4681H140.247V28.0193C140.247 27.3012 140.061 26.7394 139.689 26.3336C139.322 25.928 138.813 25.7252 138.162 25.7252C137.721 25.7252 137.328 25.8232 136.984 26.019C136.644 26.21 136.377 26.4876 136.182 26.8513C135.991 27.215 135.896 27.6556 135.896 28.1732ZM145.338 34.4681V23.7247H147.862V34.4681H145.338ZM146.607 22.2001C146.207 22.2001 145.863 22.0671 145.575 21.8014C145.286 21.5309 145.142 21.2069 145.142 20.8291C145.142 20.4468 145.286 20.1226 145.575 19.8569C145.863 19.5864 146.207 19.4513 146.607 19.4513C147.011 19.4513 147.355 19.5864 147.639 19.8569C147.927 20.1226 148.071 20.4468 148.071 20.8291C148.071 21.2069 147.927 21.5309 147.639 21.8014C147.355 22.0671 147.011 22.2001 146.607 22.2001ZM153.547 20.1436L153.317 30.2576H151.071L150.848 20.1436H153.547ZM152.194 34.622C151.771 34.622 151.408 34.4727 151.106 34.1743C150.809 33.8759 150.66 33.5122 150.66 33.0831C150.66 32.6636 150.809 32.3045 151.106 32.0061C151.408 31.7077 151.771 31.5585 152.194 31.5585C152.608 31.5585 152.966 31.7077 153.268 32.0061C153.575 32.3045 153.728 32.6636 153.728 33.0831C153.728 33.3676 153.656 33.6264 153.512 33.8596C153.372 34.0927 153.186 34.2792 152.954 34.4192C152.726 34.5544 152.473 34.622 152.194 34.622Z" fill="#252525"/>
</g>
<defs>
<clipPath id="clip0_701_763">
<rect width="180" height="77.1429" fill="white"/>
</clipPath>
</defs>
</svg>
