<svg width="160" height="47" viewBox="0 0 160 47" fill="none" xmlns="http://www.w3.org/2000/svg">
<rect width="160" height="34" rx="5" fill="white"/>
<path d="M80 47L73.0718 32.75H86.9282L80 47Z" fill="white"/>
<path d="M13.4773 13.598V12.2727H20.4403V13.598H17.7429V21H16.1747V13.598H13.4773ZM22.7074 21.1321C22.2926 21.1321 21.919 21.0582 21.5866 20.9105C21.2571 20.7599 20.9957 20.5384 20.8026 20.2457C20.6122 19.9531 20.517 19.5923 20.517 19.1634C20.517 18.794 20.5852 18.4886 20.7216 18.2472C20.858 18.0057 21.044 17.8125 21.2798 17.6676C21.5156 17.5227 21.7813 17.4134 22.0767 17.3395C22.375 17.2628 22.6832 17.2074 23.0014 17.1733C23.3849 17.1335 23.696 17.098 23.9347 17.0668C24.1733 17.0327 24.3466 16.9815 24.4545 16.9134C24.5653 16.8423 24.6207 16.733 24.6207 16.5852V16.5597C24.6207 16.2386 24.5256 15.9901 24.3352 15.8139C24.1449 15.6378 23.8707 15.5497 23.5128 15.5497C23.1349 15.5497 22.8352 15.6321 22.6136 15.7969C22.3949 15.9616 22.2472 16.1562 22.1705 16.3807L20.7301 16.1761C20.8438 15.7784 21.0313 15.446 21.2926 15.179C21.554 14.9091 21.8736 14.7074 22.2514 14.5739C22.6293 14.4375 23.0469 14.3693 23.5043 14.3693C23.8196 14.3693 24.1335 14.4062 24.446 14.4801C24.7585 14.554 25.044 14.6761 25.3026 14.8466C25.5611 15.0142 25.7685 15.2429 25.9247 15.5327C26.0838 15.8224 26.1634 16.1847 26.1634 16.6193V21H24.6804V20.1009H24.6293C24.5355 20.2827 24.4034 20.4531 24.233 20.6122C24.0653 20.7685 23.8537 20.8949 23.598 20.9915C23.3452 21.0852 23.0483 21.1321 22.7074 21.1321ZM23.108 19.9986C23.4176 19.9986 23.6861 19.9375 23.9134 19.8153C24.1406 19.6903 24.3153 19.5256 24.4375 19.321C24.5625 19.1165 24.625 18.8935 24.625 18.652V17.8807C24.5767 17.9205 24.4943 17.9574 24.3778 17.9915C24.2642 18.0256 24.1364 18.0554 23.9943 18.081C23.8523 18.1065 23.7116 18.1293 23.5724 18.1491C23.4332 18.169 23.3125 18.1861 23.2102 18.2003C22.9801 18.2315 22.7741 18.2827 22.5923 18.3537C22.4105 18.4247 22.267 18.5241 22.1619 18.652C22.0568 18.777 22.0043 18.9389 22.0043 19.1378C22.0043 19.4219 22.108 19.6364 22.3153 19.7812C22.5227 19.9261 22.7869 19.9986 23.108 19.9986ZM27.7145 21V14.4545H29.1889V15.5668H29.2656C29.402 15.1918 29.6278 14.8991 29.9432 14.6889C30.2585 14.4759 30.6349 14.3693 31.0724 14.3693C31.5156 14.3693 31.8892 14.4773 32.1932 14.6932C32.5 14.9062 32.7159 15.1974 32.8409 15.5668H32.9091C33.054 15.2031 33.2983 14.9134 33.642 14.6974C33.9886 14.4787 34.3991 14.3693 34.8736 14.3693C35.4759 14.3693 35.9673 14.5597 36.348 14.9403C36.7287 15.321 36.919 15.8764 36.919 16.6065V21H35.3722V16.8452C35.3722 16.4389 35.2642 16.142 35.0483 15.9545C34.8324 15.7642 34.5682 15.669 34.2557 15.669C33.8835 15.669 33.5923 15.7855 33.3821 16.0185C33.1747 16.2486 33.071 16.5483 33.071 16.9176V21H31.5582V16.7812C31.5582 16.4432 31.456 16.1733 31.2514 15.9716C31.0497 15.7699 30.7855 15.669 30.4588 15.669C30.2372 15.669 30.0355 15.7259 29.8537 15.8395C29.6719 15.9503 29.527 16.108 29.419 16.3125C29.3111 16.5142 29.2571 16.75 29.2571 17.0199V21H27.7145ZM38.5522 21V12.2727H40.0948V15.5369H40.1587C40.2383 15.3778 40.3505 15.2088 40.4954 15.0298C40.6403 14.848 40.8363 14.6932 41.0835 14.5653C41.3306 14.4347 41.646 14.3693 42.0295 14.3693C42.5352 14.3693 42.9911 14.4986 43.3974 14.7571C43.8065 15.0128 44.1303 15.392 44.369 15.8949C44.6104 16.3949 44.7312 17.0085 44.7312 17.7358C44.7312 18.4545 44.6133 19.0653 44.3775 19.5682C44.1417 20.071 43.8207 20.4545 43.4144 20.7188C43.0082 20.983 42.5479 21.1151 42.0337 21.1151C41.6587 21.1151 41.3477 21.0526 41.1005 20.9276C40.8533 20.8026 40.6545 20.652 40.5039 20.4759C40.3562 20.2969 40.2411 20.1278 40.1587 19.9688H40.0692V21H38.5522ZM40.065 17.7273C40.065 18.1506 40.1246 18.5213 40.244 18.8395C40.3661 19.1577 40.5408 19.4062 40.7681 19.5852C40.9982 19.7614 41.2766 19.8494 41.6033 19.8494C41.9442 19.8494 42.2298 19.7585 42.4599 19.5767C42.69 19.392 42.8633 19.1406 42.9798 18.8224C43.0991 18.5014 43.1587 18.1364 43.1587 17.7273C43.1587 17.321 43.1005 16.9602 42.984 16.6449C42.8675 16.3295 42.6942 16.0824 42.4641 15.9034C42.234 15.7244 41.9471 15.6349 41.6033 15.6349C41.2738 15.6349 40.994 15.7216 40.7638 15.8949C40.5337 16.0682 40.359 16.3111 40.2397 16.6236C40.1232 16.9361 40.065 17.304 40.065 17.7273ZM47.9261 21.1321C47.5114 21.1321 47.1378 21.0582 46.8054 20.9105C46.4759 20.7599 46.2145 20.5384 46.0213 20.2457C45.831 19.9531 45.7358 19.5923 45.7358 19.1634C45.7358 18.794 45.804 18.4886 45.9403 18.2472C46.0767 18.0057 46.2628 17.8125 46.4986 17.6676C46.7344 17.5227 47 17.4134 47.2955 17.3395C47.5938 17.2628 47.902 17.2074 48.2202 17.1733C48.6037 17.1335 48.9148 17.098 49.1534 17.0668C49.392 17.0327 49.5653 16.9815 49.6733 16.9134C49.7841 16.8423 49.8395 16.733 49.8395 16.5852V16.5597C49.8395 16.2386 49.7443 15.9901 49.554 15.8139C49.3636 15.6378 49.0895 15.5497 48.7315 15.5497C48.3537 15.5497 48.054 15.6321 47.8324 15.7969C47.6136 15.9616 47.4659 16.1562 47.3892 16.3807L45.9489 16.1761C46.0625 15.7784 46.25 15.446 46.5114 15.179C46.7727 14.9091 47.0923 14.7074 47.4702 14.5739C47.848 14.4375 48.2656 14.3693 48.723 14.3693C49.0384 14.3693 49.3523 14.4062 49.6648 14.4801C49.9773 14.554 50.2628 14.6761 50.5213 14.8466C50.7798 15.0142 50.9872 15.2429 51.1435 15.5327C51.3026 15.8224 51.3821 16.1847 51.3821 16.6193V21H49.8991V20.1009H49.848C49.7543 20.2827 49.6222 20.4531 49.4517 20.6122C49.2841 20.7685 49.0724 20.8949 48.8168 20.9915C48.5639 21.0852 48.267 21.1321 47.9261 21.1321ZM48.3267 19.9986C48.6364 19.9986 48.9048 19.9375 49.1321 19.8153C49.3594 19.6903 49.5341 19.5256 49.6562 19.321C49.7812 19.1165 49.8438 18.8935 49.8438 18.652V17.8807C49.7955 17.9205 49.7131 17.9574 49.5966 17.9915C49.483 18.0256 49.3551 18.0554 49.2131 18.081C49.071 18.1065 48.9304 18.1293 48.7912 18.1491C48.652 18.169 48.5313 18.1861 48.429 18.2003C48.1989 18.2315 47.9929 18.2827 47.8111 18.3537C47.6293 18.4247 47.4858 18.5241 47.3807 18.652C47.2756 18.777 47.223 18.9389 47.223 19.1378C47.223 19.4219 47.3267 19.6364 47.5341 19.7812C47.7415 19.9261 48.0057 19.9986 48.3267 19.9986ZM54.4759 17.1648V21H52.9332V12.2727H54.4418V15.5668H54.5185C54.6719 15.1974 54.9091 14.9062 55.2301 14.6932C55.554 14.4773 55.9659 14.3693 56.4659 14.3693C56.9205 14.3693 57.3168 14.4645 57.6548 14.6548C57.9929 14.8452 58.2543 15.1236 58.4389 15.4901C58.6264 15.8565 58.7202 16.304 58.7202 16.8324V21H57.1776V17.071C57.1776 16.6307 57.0639 16.2884 56.8366 16.044C56.6122 15.7969 56.2969 15.6733 55.8906 15.6733C55.6179 15.6733 55.3736 15.733 55.1577 15.8523C54.9446 15.9687 54.777 16.1378 54.6548 16.3594C54.5355 16.581 54.4759 16.8494 54.4759 17.1648ZM64.6754 18.946L64.6712 17.0838H64.9183L67.2706 14.4545H69.0732L66.1797 17.6761H65.8601L64.6754 18.946ZM63.2692 21V12.2727H64.8118V21H63.2692ZM67.3771 21L65.2464 18.0213L66.2862 16.9347L69.2223 21H67.3771ZM72.7294 21.1278C72.0732 21.1278 71.5064 20.9915 71.0291 20.7188C70.5547 20.4432 70.1896 20.054 69.9339 19.5511C69.6783 19.0455 69.5504 18.4503 69.5504 17.7656C69.5504 17.0923 69.6783 16.5014 69.9339 15.9929C70.1925 15.4815 70.5533 15.0838 71.0163 14.7997C71.4794 14.5128 72.0234 14.3693 72.6484 14.3693C73.0518 14.3693 73.4325 14.4347 73.7905 14.5653C74.1513 14.6932 74.4695 14.892 74.745 15.1619C75.0234 15.4318 75.2422 15.7756 75.4013 16.1932C75.5604 16.608 75.6399 17.1023 75.6399 17.6761V18.1491H70.2749V17.1094H74.1612C74.1584 16.8139 74.0945 16.5511 73.9695 16.321C73.8445 16.0881 73.6697 15.9048 73.4453 15.7713C73.2237 15.6378 72.9652 15.571 72.6697 15.571C72.3544 15.571 72.0774 15.6477 71.8388 15.8011C71.6001 15.9517 71.4141 16.1506 71.2805 16.3977C71.1499 16.642 71.0831 16.9105 71.0803 17.2031V18.1108C71.0803 18.4915 71.1499 18.8182 71.2891 19.0909C71.4283 19.3608 71.6229 19.5682 71.8729 19.7131C72.1229 19.8551 72.4155 19.9261 72.7507 19.9261C72.9751 19.9261 73.1783 19.8949 73.3601 19.8324C73.5419 19.767 73.6996 19.6719 73.8331 19.5469C73.9666 19.4219 74.0675 19.267 74.1357 19.0824L75.576 19.2443C75.4851 19.625 75.3118 19.9574 75.0561 20.2415C74.8033 20.5227 74.4794 20.7415 74.0845 20.8977C73.6896 21.0511 73.2379 21.1278 72.7294 21.1278ZM82.9471 21H79.9897V12.2727H83.0067C83.8732 12.2727 84.6175 12.4474 85.2397 12.7969C85.8647 13.1435 86.3448 13.642 86.68 14.2926C87.0153 14.9432 87.1829 15.7216 87.1829 16.6278C87.1829 17.5369 87.0138 18.3182 86.6758 18.9716C86.3406 19.625 85.8562 20.1264 85.2227 20.4759C84.592 20.8253 83.8335 21 82.9471 21ZM81.5707 19.6321H82.8704C83.4783 19.6321 83.9854 19.5213 84.3917 19.2997C84.7979 19.0753 85.1033 18.7415 85.3079 18.2983C85.5124 17.8523 85.6147 17.2955 85.6147 16.6278C85.6147 15.9602 85.5124 15.4062 85.3079 14.9659C85.1033 14.5227 84.8008 14.1918 84.4002 13.973C84.0025 13.7514 83.5082 13.6406 82.9173 13.6406H81.5707V19.6321ZM90.5004 21.1321C90.0856 21.1321 89.712 21.0582 89.3796 20.9105C89.0501 20.7599 88.7887 20.5384 88.5955 20.2457C88.4052 19.9531 88.31 19.5923 88.31 19.1634C88.31 18.794 88.3782 18.4886 88.5146 18.2472C88.6509 18.0057 88.837 17.8125 89.0728 17.6676C89.3086 17.5227 89.5742 17.4134 89.8697 17.3395C90.168 17.2628 90.4762 17.2074 90.7944 17.1733C91.1779 17.1335 91.489 17.098 91.7276 17.0668C91.9663 17.0327 92.1396 16.9815 92.2475 16.9134C92.3583 16.8423 92.4137 16.733 92.4137 16.5852V16.5597C92.4137 16.2386 92.3185 15.9901 92.1282 15.8139C91.9379 15.6378 91.6637 15.5497 91.3058 15.5497C90.9279 15.5497 90.6282 15.6321 90.4066 15.7969C90.1879 15.9616 90.0401 16.1562 89.9634 16.3807L88.5231 16.1761C88.6367 15.7784 88.8242 15.446 89.0856 15.179C89.3469 14.9091 89.6665 14.7074 90.0444 14.5739C90.4222 14.4375 90.8398 14.3693 91.2972 14.3693C91.6126 14.3693 91.9265 14.4062 92.239 14.4801C92.5515 14.554 92.837 14.6761 93.0955 14.8466C93.354 15.0142 93.5614 15.2429 93.7177 15.5327C93.8768 15.8224 93.9563 16.1847 93.9563 16.6193V21H92.4734V20.1009H92.4222C92.3285 20.2827 92.1964 20.4531 92.0259 20.6122C91.8583 20.7685 91.6467 20.8949 91.391 20.9915C91.1381 21.0852 90.8413 21.1321 90.5004 21.1321ZM90.9009 19.9986C91.2106 19.9986 91.479 19.9375 91.7063 19.8153C91.9336 19.6903 92.1083 19.5256 92.2305 19.321C92.3555 19.1165 92.418 18.8935 92.418 18.652V17.8807C92.3697 17.9205 92.2873 17.9574 92.1708 17.9915C92.0572 18.0256 91.9293 18.0554 91.7873 18.081C91.6452 18.1065 91.5046 18.1293 91.3654 18.1491C91.2262 18.169 91.1055 18.1861 91.0032 18.2003C90.7731 18.2315 90.5671 18.2827 90.3853 18.3537C90.2035 18.4247 90.06 18.5241 89.9549 18.652C89.8498 18.777 89.7972 18.9389 89.7972 19.1378C89.7972 19.4219 89.9009 19.6364 90.1083 19.7812C90.3157 19.9261 90.5799 19.9986 90.9009 19.9986ZM98.8228 14.4545V15.6477H94.9535V14.4545H98.8228ZM95.9208 21V13.8366C95.9208 13.3963 96.0117 13.0298 96.1935 12.7372C96.3782 12.4446 96.6254 12.2259 96.935 12.081C97.2447 11.9361 97.5884 11.8636 97.9663 11.8636C98.2333 11.8636 98.4705 11.8849 98.6779 11.9276C98.8853 11.9702 99.0387 12.0085 99.1381 12.0426L98.8313 13.2358C98.766 13.2159 98.6836 13.196 98.5842 13.1761C98.4847 13.1534 98.3739 13.142 98.2518 13.142C97.9648 13.142 97.7617 13.2116 97.6424 13.3509C97.5259 13.4872 97.4677 13.6832 97.4677 13.9389V21H95.9208ZM103.299 14.4545V15.6477H99.5366V14.4545H103.299ZM100.466 12.8864H102.008V19.0312C102.008 19.2386 102.039 19.3977 102.102 19.5085C102.167 19.6165 102.252 19.6903 102.358 19.7301C102.463 19.7699 102.579 19.7898 102.707 19.7898C102.804 19.7898 102.892 19.7827 102.971 19.7685C103.054 19.7543 103.116 19.7415 103.159 19.7301L103.419 20.9361C103.336 20.9645 103.218 20.9957 103.065 21.0298C102.914 21.0639 102.73 21.0838 102.511 21.0895C102.125 21.1009 101.777 21.0426 101.467 20.9148C101.157 20.7841 100.912 20.5824 100.73 20.3097C100.551 20.0369 100.463 19.696 100.466 19.2869V12.8864ZM106.473 21.1321C106.058 21.1321 105.685 21.0582 105.352 20.9105C105.023 20.7599 104.761 20.5384 104.568 20.2457C104.378 19.9531 104.283 19.5923 104.283 19.1634C104.283 18.794 104.351 18.4886 104.487 18.2472C104.624 18.0057 104.81 17.8125 105.045 17.6676C105.281 17.5227 105.547 17.4134 105.842 17.3395C106.141 17.2628 106.449 17.2074 106.767 17.1733C107.151 17.1335 107.462 17.098 107.7 17.0668C107.939 17.0327 108.112 16.9815 108.22 16.9134C108.331 16.8423 108.386 16.733 108.386 16.5852V16.5597C108.386 16.2386 108.291 15.9901 108.101 15.8139C107.911 15.6378 107.636 15.5497 107.278 15.5497C106.901 15.5497 106.601 15.6321 106.379 15.7969C106.161 15.9616 106.013 16.1562 105.936 16.3807L104.496 16.1761C104.609 15.7784 104.797 15.446 105.058 15.179C105.32 14.9091 105.639 14.7074 106.017 14.5739C106.395 14.4375 106.813 14.3693 107.27 14.3693C107.585 14.3693 107.899 14.4062 108.212 14.4801C108.524 14.554 108.81 14.6761 109.068 14.8466C109.327 15.0142 109.534 15.2429 109.69 15.5327C109.849 15.8224 109.929 16.1847 109.929 16.6193V21H108.446V20.1009H108.395C108.301 20.2827 108.169 20.4531 107.999 20.6122C107.831 20.7685 107.619 20.8949 107.364 20.9915C107.111 21.0852 106.814 21.1321 106.473 21.1321ZM106.874 19.9986C107.183 19.9986 107.452 19.9375 107.679 19.8153C107.906 19.6903 108.081 19.5256 108.203 19.321C108.328 19.1165 108.391 18.8935 108.391 18.652V17.8807C108.342 17.9205 108.26 17.9574 108.143 17.9915C108.03 18.0256 107.902 18.0554 107.76 18.081C107.618 18.1065 107.477 18.1293 107.338 18.1491C107.199 18.169 107.078 18.1861 106.976 18.2003C106.746 18.2315 106.54 18.2827 106.358 18.3537C106.176 18.4247 106.033 18.5241 105.928 18.652C105.822 18.777 105.77 18.9389 105.77 19.1378C105.77 19.4219 105.874 19.6364 106.081 19.7812C106.288 19.9261 106.553 19.9986 106.874 19.9986ZM111.48 21V14.4545H112.976V15.5455H113.044C113.163 15.1676 113.368 14.8764 113.658 14.6719C113.95 14.4645 114.284 14.3608 114.659 14.3608C114.744 14.3608 114.839 14.3651 114.945 14.3736C115.053 14.3793 115.142 14.3892 115.213 14.4034V15.8224C115.148 15.7997 115.044 15.7798 114.902 15.7628C114.763 15.7429 114.628 15.733 114.497 15.733C114.216 15.733 113.963 15.794 113.739 15.9162C113.517 16.0355 113.342 16.2017 113.214 16.4148C113.087 16.6278 113.023 16.8736 113.023 17.152V21H111.48ZM124.026 14.6719C123.986 14.2997 123.818 14.0099 123.523 13.8026C123.23 13.5952 122.849 13.4915 122.381 13.4915C122.051 13.4915 121.768 13.5412 121.533 13.6406C121.297 13.7401 121.116 13.875 120.991 14.0455C120.866 14.2159 120.803 14.4105 120.8 14.6293C120.8 14.8111 120.841 14.9687 120.923 15.1023C121.009 15.2358 121.124 15.3494 121.268 15.4432C121.413 15.5341 121.574 15.6108 121.75 15.6733C121.926 15.7358 122.104 15.7884 122.283 15.831L123.101 16.0355C123.43 16.1122 123.747 16.2159 124.051 16.3466C124.358 16.4773 124.632 16.642 124.874 16.8409C125.118 17.0398 125.311 17.2798 125.453 17.5611C125.595 17.8423 125.666 18.1719 125.666 18.5497C125.666 19.0611 125.536 19.5114 125.274 19.9006C125.013 20.2869 124.635 20.5895 124.141 20.8082C123.649 21.0241 123.054 21.1321 122.355 21.1321C121.676 21.1321 121.087 21.027 120.587 20.8168C120.089 20.6065 119.7 20.2997 119.419 19.8963C119.141 19.4929 118.99 19.0014 118.967 18.4219H120.523C120.545 18.7259 120.639 18.9787 120.804 19.1804C120.969 19.3821 121.183 19.5327 121.447 19.6321C121.714 19.7315 122.013 19.7812 122.342 19.7812C122.686 19.7812 122.987 19.7301 123.246 19.6278C123.507 19.5227 123.712 19.3778 123.859 19.1932C124.007 19.0057 124.082 18.7869 124.085 18.5369C124.082 18.3097 124.016 18.1222 123.885 17.9744C123.754 17.8239 123.571 17.6989 123.335 17.5994C123.102 17.4972 122.83 17.4062 122.517 17.3267L121.524 17.071C120.805 16.8864 120.237 16.6065 119.82 16.2315C119.405 15.8537 119.197 15.3523 119.197 14.7273C119.197 14.2131 119.337 13.7628 119.615 13.3764C119.896 12.9901 120.278 12.6903 120.761 12.4773C121.244 12.2614 121.791 12.1534 122.402 12.1534C123.021 12.1534 123.564 12.2614 124.03 12.4773C124.499 12.6903 124.866 12.9872 125.134 13.3679C125.401 13.7457 125.538 14.1804 125.547 14.6719H124.026ZM128.891 21.1321C128.476 21.1321 128.103 21.0582 127.77 20.9105C127.441 20.7599 127.179 20.5384 126.986 20.2457C126.796 19.9531 126.701 19.5923 126.701 19.1634C126.701 18.794 126.769 18.4886 126.905 18.2472C127.042 18.0057 127.228 17.8125 127.463 17.6676C127.699 17.5227 127.965 17.4134 128.26 17.3395C128.559 17.2628 128.867 17.2074 129.185 17.1733C129.569 17.1335 129.88 17.098 130.118 17.0668C130.357 17.0327 130.53 16.9815 130.638 16.9134C130.749 16.8423 130.804 16.733 130.804 16.5852V16.5597C130.804 16.2386 130.709 15.9901 130.519 15.8139C130.328 15.6378 130.054 15.5497 129.696 15.5497C129.319 15.5497 129.019 15.6321 128.797 15.7969C128.578 15.9616 128.431 16.1562 128.354 16.3807L126.914 16.1761C127.027 15.7784 127.215 15.446 127.476 15.179C127.738 14.9091 128.057 14.7074 128.435 14.5739C128.813 14.4375 129.23 14.3693 129.688 14.3693C130.003 14.3693 130.317 14.4062 130.63 14.4801C130.942 14.554 131.228 14.6761 131.486 14.8466C131.745 15.0142 131.952 15.2429 132.108 15.5327C132.267 15.8224 132.347 16.1847 132.347 16.6193V21H130.864V20.1009H130.813C130.719 20.2827 130.587 20.4531 130.417 20.6122C130.249 20.7685 130.037 20.8949 129.782 20.9915C129.529 21.0852 129.232 21.1321 128.891 21.1321ZM129.292 19.9986C129.601 19.9986 129.87 19.9375 130.097 19.8153C130.324 19.6903 130.499 19.5256 130.621 19.321C130.746 19.1165 130.809 18.8935 130.809 18.652V17.8807C130.76 17.9205 130.678 17.9574 130.561 17.9915C130.448 18.0256 130.32 18.0554 130.178 18.081C130.036 18.1065 129.895 18.1293 129.756 18.1491C129.617 18.169 129.496 18.1861 129.394 18.2003C129.164 18.2315 128.958 18.2827 128.776 18.3537C128.594 18.4247 128.451 18.5241 128.346 18.652C128.24 18.777 128.188 18.9389 128.188 19.1378C128.188 19.4219 128.292 19.6364 128.499 19.7812C128.706 19.9261 128.971 19.9986 129.292 19.9986ZM134.623 23.4545C134.412 23.4545 134.218 23.4375 134.039 23.4034C133.863 23.3722 133.722 23.3352 133.617 23.2926L133.975 22.0909C134.199 22.1563 134.4 22.1875 134.576 22.1847C134.752 22.1818 134.907 22.1264 135.04 22.0185C135.176 21.9134 135.292 21.7372 135.385 21.4901L135.517 21.1364L133.144 14.4545H134.78L136.289 19.3977H136.357L137.87 14.4545H139.51L136.89 21.7926C136.767 22.1392 136.605 22.4361 136.404 22.6832C136.202 22.9332 135.955 23.1236 135.662 23.2543C135.373 23.3878 135.026 23.4545 134.623 23.4545ZM142.274 21.1321C141.859 21.1321 141.485 21.0582 141.153 20.9105C140.824 20.7599 140.562 20.5384 140.369 20.2457C140.179 19.9531 140.083 19.5923 140.083 19.1634C140.083 18.794 140.152 18.4886 140.288 18.2472C140.424 18.0057 140.61 17.8125 140.846 17.6676C141.082 17.5227 141.348 17.4134 141.643 17.3395C141.941 17.2628 142.25 17.2074 142.568 17.1733C142.951 17.1335 143.262 17.098 143.501 17.0668C143.74 17.0327 143.913 16.9815 144.021 16.9134C144.132 16.8423 144.187 16.733 144.187 16.5852V16.5597C144.187 16.2386 144.092 15.9901 143.902 15.8139C143.711 15.6378 143.437 15.5497 143.079 15.5497C142.701 15.5497 142.402 15.6321 142.18 15.7969C141.961 15.9616 141.814 16.1562 141.737 16.3807L140.297 16.1761C140.41 15.7784 140.598 15.446 140.859 15.179C141.12 14.9091 141.44 14.7074 141.818 14.5739C142.196 14.4375 142.613 14.3693 143.071 14.3693C143.386 14.3693 143.7 14.4062 144.012 14.4801C144.325 14.554 144.61 14.6761 144.869 14.8466C145.127 15.0142 145.335 15.2429 145.491 15.5327C145.65 15.8224 145.73 16.1847 145.73 16.6193V21H144.247V20.1009H144.196C144.102 20.2827 143.97 20.4531 143.799 20.6122C143.632 20.7685 143.42 20.8949 143.164 20.9915C142.912 21.0852 142.615 21.1321 142.274 21.1321ZM142.674 19.9986C142.984 19.9986 143.252 19.9375 143.48 19.8153C143.707 19.6903 143.882 19.5256 144.004 19.321C144.129 19.1165 144.191 18.8935 144.191 18.652V17.8807C144.143 17.9205 144.061 17.9574 143.944 17.9915C143.831 18.0256 143.703 18.0554 143.561 18.081C143.419 18.1065 143.278 18.1293 143.139 18.1491C143 18.169 142.879 18.1861 142.777 18.2003C142.547 18.2315 142.341 18.2827 142.159 18.3537C141.977 18.4247 141.833 18.5241 141.728 18.652C141.623 18.777 141.571 18.9389 141.571 19.1378C141.571 19.4219 141.674 19.6364 141.882 19.7812C142.089 19.9261 142.353 19.9986 142.674 19.9986Z" fill="#252525"/>
</svg>
