<svg width="80" height="80" viewBox="0 0 80 80" fill="none" xmlns="http://www.w3.org/2000/svg">
<path fill-rule="evenodd" clip-rule="evenodd" d="M63.6665 63.8666C65.6332 60.8666 66.3665 59.3333 67.8665 55.9666C56.7999 51.7666 55.0332 35.9999 65.9665 29.9666C62.6332 25.7666 57.9332 23.3333 53.4999 23.3333C50.2999 23.3333 48.0998 24.1666 46.1332 24.9333C44.4665 25.5666 42.9665 26.1332 41.0999 26.1332C39.0999 26.1332 37.3332 25.4999 35.4665 24.8332C33.4665 24.0999 31.3332 23.3333 28.6665 23.3333C23.6998 23.3333 18.3999 26.3666 15.0332 31.5666C10.2999 38.8999 11.1332 52.6332 18.7665 64.3666C21.4998 68.5666 25.1665 73.2666 29.9332 73.3332C31.9332 73.3666 33.2332 72.7666 34.6665 72.1332C36.2999 71.3999 38.0665 70.5999 41.1665 70.5999C44.2665 70.5666 45.9999 71.3999 47.6332 72.1332C49.0332 72.7666 50.2998 73.3666 52.2665 73.3332C57.0665 73.2666 60.9332 68.0666 63.6665 63.8666Z" fill="white"/>
<path opacity="0.4" fill-rule="evenodd" clip-rule="evenodd" d="M52.7998 6.66675C53.3332 10.3334 51.8332 13.9667 49.8665 16.5001C47.7665 19.2334 44.0999 21.3668 40.5665 21.2334C39.9332 17.7001 41.5665 14.0667 43.5665 11.6334C45.7999 8.96674 49.5665 6.90008 52.7998 6.66675Z" fill="white"/>
</svg>
