<svg width="31" height="31" viewBox="0 0 31 31" fill="none" xmlns="http://www.w3.org/2000/svg">
<path d="M21.9584 27.4478H9.04171C4.32712 27.4478 1.61462 24.7353 1.61462 20.0208V10.9791C1.61462 6.2645 4.32712 3.552 9.04171 3.552H21.9584C26.673 3.552 29.3855 6.2645 29.3855 10.9791V20.0208C29.3855 24.7353 26.673 27.4478 21.9584 27.4478ZM9.04171 5.4895C5.34754 5.4895 3.55212 7.28492 3.55212 10.9791V20.0208C3.55212 23.7149 5.34754 25.5103 9.04171 25.5103H21.9584C25.6525 25.5103 27.448 23.7149 27.448 20.0208V10.9791C27.448 7.28492 25.6525 5.4895 21.9584 5.4895H9.04171Z" fill="#292D32"/>
<path d="M15.4997 16.6237C14.4147 16.6237 13.3168 16.2879 12.4772 15.6033L8.43425 12.3741C8.02092 12.0383 7.94343 11.4312 8.27926 11.0179C8.61509 10.6045 9.22218 10.527 9.63551 10.8629L13.6784 14.092C14.6601 14.88 16.3263 14.88 17.308 14.092L21.3509 10.8629C21.7643 10.527 22.3843 10.5916 22.7072 11.0179C23.043 11.4312 22.9784 12.0512 22.5522 12.3741L18.5093 15.6033C17.6826 16.2879 16.5847 16.6237 15.4997 16.6237Z" fill="#292D32"/>
</svg>
