<svg width="80" height="80" viewBox="0 0 80 80" fill="none" xmlns="http://www.w3.org/2000/svg">
<path d="M73.3333 53.3005C73.3333 65.2841 66.1 72.4281 53.9666 72.4281H50C48.1666 72.4281 46.6666 70.9466 46.6666 69.1359V50.1401C46.6666 49.2512 47.3999 48.494 48.2999 48.494L54.1666 48.3952C54.6333 48.3623 55.0333 48.0331 55.1333 47.5722L56.3 41.2841C56.4 40.6915 55.9333 40.1318 55.2999 40.1318L48.1999 40.2306C47.2666 40.2306 46.5333 39.5063 46.5 38.6174L46.3666 30.5515C46.3666 30.0248 46.7999 29.5639 47.3666 29.5639L55.3666 29.4322C55.9332 29.4322 56.3666 29.0043 56.3666 28.4446L56.2333 20.5433C56.2333 19.9836 55.8 19.5557 55.2333 19.5557L46.2333 19.6874C40.6999 19.7862 36.3 24.2635 36.4 29.7285L36.5666 38.782C36.6 39.7038 35.8667 40.4281 34.9333 40.461L30.9333 40.5268C30.3666 40.5268 29.9333 40.9548 29.9333 41.5145L30.0333 47.7697C30.0333 48.3294 30.4666 48.7573 31.0333 48.7573L35.0333 48.6915C35.9667 48.6915 36.6999 49.4157 36.7333 50.3046L37.0332 69.0701C37.0666 70.9137 35.5666 72.4281 33.6999 72.4281H26.0333C13.9 72.4281 6.66663 65.284 6.66663 53.2676V25.712C6.66663 13.7285 13.9 6.58447 26.0333 6.58447H53.9666C66.1 6.58447 73.3333 13.7285 73.3333 25.712V53.3005Z" fill="white"/>
</svg>
