<svg width="80" height="80" viewBox="0 0 80 80" fill="none" xmlns="http://www.w3.org/2000/svg">
<path d="M72.4667 36.9001C72.3 35.2001 70.8667 33.9334 69.1667 33.9334H44C42.1667 33.9334 40.6667 35.4334 40.6667 37.2667V42.9668C40.6667 44.8001 42.1667 46.3001 44 46.3001H59.0334C58.6667 49.3668 56.6667 54.0001 52.2334 57.1001C49.4 59.0668 45.6334 60.4334 40.6667 60.4334C40.4334 60.4334 40.2334 60.4334 40.0001 60.4001C31.5001 60.1334 24.3001 54.4335 21.7001 46.6001C21.0001 44.5001 20.6001 42.3001 20.6001 40.0001C20.6001 37.7001 21.0001 35.4667 21.6667 33.4C21.8667 32.8 22.1 32.2001 22.3667 31.6001C25.4334 24.7001 32.1334 19.8334 40.0001 19.6001C40.2001 19.5668 40.4334 19.5667 40.6667 19.5667C45.4334 19.5667 49 21.1334 51.5 22.8667C52.8 23.7667 54.5334 23.5667 55.6667 22.4667L60.3 17.9334C61.7667 16.5001 61.6334 14.0667 59.9667 12.8667C54.6667 8.9667 48.2 6.66675 40.6667 6.66675C40.4334 6.66675 40.2334 6.66678 40.0001 6.70011C27.2334 6.93345 16.2667 14.3334 10.9 25.0334C8.63337 29.5668 7.33337 34.6334 7.33337 40.0001C7.33337 45.3667 8.63337 50.4334 10.9 54.9667H10.9334C16.3 65.6667 27.2667 73.0667 40.0001 73.3C40.2334 73.3334 40.4334 73.3334 40.6667 73.3334C49.6667 73.3334 57.2334 70.3667 62.7334 65.2667C69.0334 59.4334 72.6667 50.9001 72.6667 40.7334C72.6667 39.3001 72.6 38.0668 72.4667 36.9001Z" fill="white"/>
</svg>
