<svg width="31" height="31" viewBox="0 0 31 31" fill="none" xmlns="http://www.w3.org/2000/svg">
<path d="M23.25 13.8853C22.7204 13.8853 22.2812 13.4462 22.2812 12.9166V10.3333C22.2812 6.2645 21.1317 3.552 15.5 3.552C9.86833 3.552 8.71875 6.2645 8.71875 10.3333V12.9166C8.71875 13.4462 8.27958 13.8853 7.75 13.8853C7.22042 13.8853 6.78125 13.4462 6.78125 12.9166V10.3333C6.78125 6.58742 7.68542 1.6145 15.5 1.6145C23.3146 1.6145 24.2188 6.58742 24.2188 10.3333V12.9166C24.2188 13.4462 23.7796 13.8853 23.25 13.8853Z" fill="#292D32"/>
<path d="M21.9584 29.3855H9.04171C3.34546 29.3855 1.61462 27.6547 1.61462 21.9584V19.3751C1.61462 13.6788 3.34546 11.948 9.04171 11.948H21.9584C27.6546 11.948 29.3855 13.6788 29.3855 19.3751V21.9584C29.3855 27.6547 27.6546 29.3855 21.9584 29.3855ZM9.04171 13.8855C4.41754 13.8855 3.55212 14.7638 3.55212 19.3751V21.9584C3.55212 26.5697 4.41754 27.448 9.04171 27.448H21.9584C26.5825 27.448 27.448 26.5697 27.448 21.9584V19.3751C27.448 14.7638 26.5825 13.8855 21.9584 13.8855H9.04171Z" fill="#292D32"/>
<path d="M10.3333 21.9584C10.1654 21.9584 9.99745 21.9196 9.84245 21.8551C9.67454 21.7905 9.54539 21.7 9.41622 21.5838C9.18372 21.3384 9.04163 21.0155 9.04163 20.6667C9.04163 20.4988 9.08036 20.3309 9.14494 20.1759C9.20953 20.0079 9.29997 19.8788 9.41622 19.7496C9.54539 19.6334 9.67454 19.5429 9.84245 19.4784C10.3075 19.2717 10.8887 19.388 11.2504 19.7496C11.3666 19.8788 11.4571 20.0209 11.5216 20.1759C11.5862 20.3309 11.625 20.4988 11.625 20.6667C11.625 21.0025 11.4829 21.3384 11.2504 21.5838C11.0049 21.8163 10.6691 21.9584 10.3333 21.9584Z" fill="#292D32"/>
<path d="M15.5 21.9583C15.1642 21.9583 14.8284 21.8162 14.583 21.5837C14.3505 21.3383 14.2084 21.0153 14.2084 20.6666C14.2084 20.4987 14.2342 20.3308 14.3117 20.1758C14.3763 20.0208 14.4667 19.8787 14.583 19.7495C14.8801 19.4524 15.3321 19.3103 15.7455 19.4007C15.8359 19.4137 15.9134 19.4395 15.9909 19.4782C16.0684 19.5041 16.1459 19.5429 16.2234 19.5945C16.288 19.6333 16.3525 19.6979 16.4171 19.7495C16.5334 19.8787 16.6238 20.0208 16.6884 20.1758C16.753 20.3308 16.7917 20.4987 16.7917 20.6666C16.7917 21.0153 16.6496 21.3383 16.4171 21.5837C16.3525 21.6353 16.288 21.687 16.2234 21.7387C16.1459 21.7903 16.0684 21.8291 15.9909 21.8549C15.9134 21.8937 15.8359 21.9195 15.7455 21.9324C15.668 21.9454 15.5775 21.9583 15.5 21.9583Z" fill="#292D32"/>
<path d="M20.6667 21.9583C20.3179 21.9583 19.995 21.8162 19.7496 21.5837C19.6333 21.4545 19.5429 21.3124 19.4783 21.1574C19.4137 21.0024 19.375 20.8345 19.375 20.6666C19.375 20.3308 19.5171 19.9949 19.7496 19.7495C19.8142 19.6979 19.8788 19.6462 19.9433 19.5945C20.0208 19.5429 20.0983 19.5041 20.1758 19.4782C20.2533 19.4395 20.3308 19.4137 20.4083 19.4007C20.8346 19.3103 21.2737 19.4524 21.5837 19.7495C21.8162 19.9949 21.9583 20.3178 21.9583 20.6666C21.9583 20.8345 21.9196 21.0024 21.855 21.1574C21.7904 21.3254 21.7 21.4545 21.5837 21.5837C21.3383 21.8162 21.0025 21.9583 20.6667 21.9583Z" fill="#292D32"/>
</svg>
