<svg width="31" height="31" viewBox="0 0 31 31" fill="none" xmlns="http://www.w3.org/2000/svg">
<path d="M22.5396 29.3853C21.08 29.3853 19.5429 29.0366 17.9542 28.3649C16.4042 27.7062 14.8413 26.802 13.3171 25.7041C11.8058 24.5933 10.3463 23.3533 8.96418 21.997C7.59501 20.6149 6.35501 19.1553 5.25709 17.657C4.14626 16.107 3.25501 14.557 2.62209 13.0587C1.95043 11.457 1.61459 9.907 1.61459 8.44742C1.61459 7.43992 1.79543 6.48409 2.14418 5.59283C2.50584 4.67575 3.08709 3.82325 3.87501 3.087C4.86959 2.10534 6.00626 1.6145 7.22043 1.6145C7.72418 1.6145 8.24084 1.73075 8.68001 1.93742C9.18376 2.16992 9.61001 2.51867 9.92001 2.98367L12.9167 7.20742C13.1879 7.582 13.3946 7.94367 13.5367 8.30534C13.7046 8.69283 13.795 9.08034 13.795 9.45492C13.795 9.94575 13.6529 10.4237 13.3817 10.8758C13.1879 11.2245 12.8908 11.5991 12.5163 11.9737L11.6379 12.8908C11.6508 12.9295 11.6638 12.9553 11.6767 12.9812C11.8317 13.2524 12.1417 13.7174 12.7358 14.4149C13.3688 15.1383 13.9629 15.797 14.5571 16.4041C15.3192 17.1533 15.9521 17.7474 16.5463 18.2383C17.2825 18.8583 17.7604 19.1683 18.0446 19.3103L18.0188 19.3749L18.9617 18.4449C19.3621 18.0445 19.7496 17.7474 20.1242 17.5537C20.8346 17.1145 21.7388 17.037 22.6429 17.4116C22.9788 17.5537 23.3404 17.7474 23.7279 18.0187L28.0163 21.067C28.4942 21.3899 28.8429 21.8033 29.0496 22.2941C29.2433 22.7849 29.3338 23.237 29.3338 23.6891C29.3338 24.3091 29.1917 24.9291 28.9204 25.5103C28.6492 26.0916 28.3133 26.5953 27.8871 27.0603C27.1508 27.8741 26.35 28.4553 25.42 28.8299C24.5288 29.1916 23.56 29.3853 22.5396 29.3853ZM7.22043 3.552C6.51001 3.552 5.85126 3.862 5.21834 4.482C4.62418 5.03742 4.21084 5.6445 3.95251 6.30325C3.68126 6.97492 3.55209 7.68534 3.55209 8.44742C3.55209 9.64867 3.83626 10.9533 4.40459 12.2966C4.98584 13.6658 5.79959 15.0866 6.83293 16.5074C7.86626 17.9283 9.04168 19.3103 10.3333 20.6149C11.625 21.8937 13.02 23.082 14.4538 24.1283C15.8488 25.1487 17.2825 25.9753 18.7033 26.5695C20.9121 27.5124 22.9788 27.732 24.6838 27.0216C25.3425 26.7503 25.9238 26.337 26.4533 25.7428C26.7504 25.4199 26.9829 25.0712 27.1767 24.6578C27.3317 24.3349 27.4092 23.9991 27.4092 23.6632C27.4092 23.4566 27.3704 23.2499 27.2671 23.0174C27.2283 22.9399 27.1508 22.7978 26.9054 22.6299L22.6171 19.5816C22.3588 19.4008 22.1263 19.2716 21.9067 19.1812C21.6225 19.0649 21.5063 18.9487 21.0671 19.2199C20.8088 19.3491 20.5763 19.5428 20.3179 19.8012L19.3363 20.7699C18.8325 21.2608 18.0575 21.377 17.4633 21.1574L17.1146 21.0024C16.585 20.7183 15.965 20.2791 15.2804 19.6978C14.6604 19.1683 13.9888 18.5483 13.175 17.7474C12.5421 17.1016 11.9092 16.417 11.2504 15.6549C10.6433 14.9445 10.2042 14.3374 9.93293 13.8337L9.77793 13.4462C9.70043 13.1491 9.67459 12.9812 9.67459 12.8003C9.67459 12.3353 9.84251 11.922 10.1654 11.5991L11.1342 10.5916C11.3925 10.3333 11.5863 10.0878 11.7154 9.86825C11.8188 9.70033 11.8575 9.55825 11.8575 9.42909C11.8575 9.32575 11.8188 9.17075 11.7542 9.01575C11.6638 8.80908 11.5217 8.57658 11.3408 8.33117L8.34418 4.0945C8.21501 3.91367 8.06001 3.7845 7.86626 3.69409C7.65959 3.60367 7.44001 3.552 7.22043 3.552ZM18.0188 19.3878L17.8121 20.2662L18.1608 19.362C18.0963 19.3491 18.0446 19.362 18.0188 19.3878Z" fill="#292D32"/>
</svg>
