<svg width="30" height="30" viewBox="0 0 30 30" fill="none" xmlns="http://www.w3.org/2000/svg">
<path d="M2.5 10.425V19.575C2.5 21.45 4.53749 22.625 6.16249 21.6875L10.125 19.4125L14.0875 17.125C14.3375 16.975 14.5375 16.8125 14.7 16.6125V13.4125C14.5375 13.2125 14.3375 13.05 14.0875 12.9L10.125 10.6125L6.16249 8.33751C4.53749 7.37501 2.5 8.54999 2.5 10.425Z" stroke="white" stroke-width="1.5" stroke-linecap="round" stroke-linejoin="round"/>
<path d="M14.7002 10.425V19.575C14.7002 21.45 16.7377 22.625 18.3627 21.6875L22.3252 19.4125L26.2877 17.125C27.9127 16.1875 27.9127 13.85 26.2877 12.9L22.3252 10.6125L18.3627 8.33751C16.7377 7.37501 14.7002 8.54999 14.7002 10.425Z" stroke="white" stroke-width="1.5" stroke-linecap="round" stroke-linejoin="round"/>
</svg>
