<svg width="26" height="26" viewBox="0 0 26 26" fill="none" xmlns="http://www.w3.org/2000/svg">
<path d="M15.145 4.84249L13 2.16669" stroke="white" stroke-width="1.5" stroke-linecap="round" stroke-linejoin="round"/>
<path d="M20.6808 8.45001C21.8833 10.0533 22.6308 12.0358 22.6308 14.2025C22.6308 19.5217 18.3192 23.8334 13 23.8334C7.68082 23.8334 3.36914 19.5217 3.36914 14.2025C3.36914 8.88334 7.68082 4.57166 13 4.57166C13.7367 4.57166 14.4517 4.66921 15.145 4.83171" stroke="white" stroke-width="1.5" stroke-linecap="round" stroke-linejoin="round"/>
<path d="M10.335 17.2466V11.4617L8.70996 13.2708" stroke="white" stroke-width="1.5" stroke-linecap="round" stroke-linejoin="round"/>
<path d="M15.1667 11.4617C16.3583 11.4617 17.3333 12.4367 17.3333 13.6283V15.0908C17.3333 16.2825 16.3583 17.2575 15.1667 17.2575C13.975 17.2575 13 16.2825 13 15.0908V13.6283C13 12.4258 13.975 11.4617 15.1667 11.4617Z" stroke="white" stroke-width="1.5" stroke-linecap="round" stroke-linejoin="round"/>
</svg>
