<svg width="26" height="26" viewBox="0 0 26 26" fill="none" xmlns="http://www.w3.org/2000/svg">
<path d="M11.5375 20.7025V5.2975C11.5375 3.835 10.92 3.25 9.36 3.25H5.4275C3.8675 3.25 3.25 3.835 3.25 5.2975V20.7025C3.25 22.165 3.8675 22.75 5.4275 22.75H9.36C10.92 22.75 11.5375 22.165 11.5375 20.7025Z" stroke="white" stroke-width="1.5" stroke-linecap="round" stroke-linejoin="round"/>
<path d="M22.7499 20.7025V5.2975C22.7499 3.835 22.1324 3.25 20.5724 3.25H16.6399C15.0907 3.25 14.4624 3.835 14.4624 5.2975V20.7025C14.4624 22.165 15.0799 22.75 16.6399 22.75H20.5724C22.1324 22.75 22.7499 22.165 22.7499 20.7025Z" stroke="white" stroke-width="1.5" stroke-linecap="round" stroke-linejoin="round"/>
</svg>
