<svg width="27" height="26" viewBox="0 0 27 26" fill="none" xmlns="http://www.w3.org/2000/svg">
<path d="M20.8808 3.31771C26.5246 7.3485 27.8474 15.2269 23.809 20.8813C22.2377 23.0814 20.015 24.6878 17.3641 25.523C16.8478 25.684 16.2952 25.4016 16.1342 24.8854C15.9733 24.3692 16.2556 23.8165 16.7718 23.6555C19.0128 22.9448 20.8939 21.592 22.2148 19.7426C25.6231 14.9704 24.5144 8.32032 19.7422 4.91198C14.97 1.50364 8.31989 2.61234 4.91155 7.38453C1.50322 12.1567 2.61192 18.8068 7.38411 22.2152C8.00056 22.6555 8.6808 23.0289 9.47488 23.3553C9.96834 23.5633 10.2143 24.1402 10.0063 24.6336C9.79837 25.1271 9.22141 25.3731 8.72795 25.1651C7.80177 24.7765 6.97883 24.3332 6.24546 23.8094C0.60174 19.7787 -0.721104 11.9002 3.31728 6.24589C7.35567 0.591537 15.2371 -0.71309 20.8808 3.31771Z" fill="white"/>
<circle cx="3.5" cy="3.5" r="3.5" transform="matrix(1 0 0 -1 9 18)" fill="white"/>
<rect x="16.7896" y="7.95392" width="2.09012" height="5.70978" transform="rotate(42.8919 16.7896 7.95392)" fill="white"/>
</svg>
