<svg width="26" height="26" viewBox="0 0 26 26" fill="none" xmlns="http://www.w3.org/2000/svg">
<path d="M12.9676 2.16669C6.98761 2.16669 2.13428 7.02002 2.13428 13C2.13428 18.98 6.98761 23.8334 12.9676 23.8334C18.9476 23.8334 23.8009 18.98 23.8009 13C23.8009 7.02002 18.9584 2.16669 12.9676 2.16669ZM16.2176 15.4159L13.0759 17.225C12.6859 17.4525 12.2526 17.5609 11.8301 17.5609C11.3968 17.5609 10.9743 17.4525 10.5843 17.225C9.80428 16.77 9.33844 15.9684 9.33844 15.0584V11.4292C9.33844 10.53 9.80428 9.71752 10.5843 9.26252C11.3643 8.80752 12.2959 8.80752 13.0868 9.26252L16.2284 11.0717C17.0084 11.5267 17.4743 12.3284 17.4743 13.2384C17.4743 14.1484 17.0084 14.9609 16.2176 15.4159Z" fill="white"/>
</svg>
