<svg width="161" height="252" viewBox="0 0 161 252" fill="none" xmlns="http://www.w3.org/2000/svg">
<mask id="path-1-outside-1_727_719" maskUnits="userSpaceOnUse" x="12" y="18" width="152" height="216" fill="black">
<rect fill="white" x="12" y="18" width="152" height="216"/>
<path d="M88.3949 230.784C74.143 230.784 61.5483 228.331 50.6108 223.426C39.7396 218.521 31.2216 211.759 25.0568 203.142C18.892 194.525 15.8428 184.714 15.9091 173.71C15.8428 165.093 17.5994 157.171 21.179 149.946C24.8248 142.654 29.7633 136.589 35.9943 131.75C42.2254 126.845 49.1856 123.729 56.875 122.403V121.21C46.733 118.758 38.6127 113.322 32.5142 104.903C26.4157 96.4848 23.3996 86.8068 23.4659 75.8693C23.3996 65.4621 26.1506 56.1818 31.7188 48.0284C37.3532 39.8087 45.0758 33.3456 54.8864 28.6392C64.697 23.9328 75.8665 21.5795 88.3949 21.5795C100.791 21.5795 111.861 23.9659 121.605 28.7386C131.416 33.4451 139.138 39.9081 144.773 48.1278C150.407 56.2812 153.258 65.5284 153.324 75.8693C153.258 86.8068 150.142 96.4848 143.977 104.903C137.813 113.322 129.792 118.758 119.915 121.21V122.403C127.538 123.729 134.399 126.845 140.497 131.75C146.662 136.589 151.567 142.654 155.213 149.946C158.925 157.171 160.814 165.093 160.881 173.71C160.814 184.714 157.699 194.525 151.534 203.142C145.369 211.759 136.818 218.521 125.881 223.426C115.009 228.331 102.514 230.784 88.3949 230.784ZM88.3949 205.628C96.8135 205.628 104.105 204.236 110.27 201.452C116.435 198.601 121.207 194.657 124.588 189.619C127.969 184.515 129.692 178.549 129.759 171.722C129.692 164.629 127.836 158.365 124.19 152.929C120.611 147.493 115.739 143.218 109.574 140.102C103.409 136.987 96.3494 135.429 88.3949 135.429C80.3741 135.429 73.2481 136.987 67.017 140.102C60.786 143.218 55.8807 147.493 52.3011 152.929C48.7216 158.365 46.965 164.629 47.0312 171.722C46.965 178.549 48.589 184.515 51.9034 189.619C55.2841 194.657 60.09 198.601 66.321 201.452C72.5521 204.236 79.91 205.628 88.3949 205.628ZM88.3949 110.869C95.1563 110.869 101.155 109.51 106.392 106.793C111.629 104.075 115.739 100.296 118.722 95.4574C121.771 90.6184 123.329 84.9508 123.395 78.4545C123.329 72.0909 121.804 66.5227 118.821 61.75C115.904 56.9773 111.828 53.2983 106.591 50.7131C101.354 48.0615 95.2888 46.7358 88.3949 46.7358C81.3684 46.7358 75.2036 48.0615 69.9006 50.7131C64.6638 53.2983 60.5871 56.9773 57.6705 61.75C54.7538 66.5227 53.3286 72.0909 53.3949 78.4545C53.3286 84.9508 54.7869 90.6184 57.7699 95.4574C60.7528 100.296 64.8627 104.075 70.0994 106.793C75.4025 109.51 81.501 110.869 88.3949 110.869Z"/>
</mask>
<path d="M50.6108 223.426L49.3769 226.161L49.3832 226.163L50.6108 223.426ZM25.0568 203.142L27.4968 201.397L27.4968 201.397L25.0568 203.142ZM15.9091 173.71L18.909 173.728L18.9092 173.708L18.909 173.687L15.9091 173.71ZM21.179 149.946L18.4957 148.604L18.4908 148.614L21.179 149.946ZM35.9943 131.75L37.8344 134.119L37.8422 134.113L37.85 134.107L35.9943 131.75ZM56.875 122.403L57.3847 125.36L59.875 124.93V122.403H56.875ZM56.875 121.21H59.875V118.849L57.5802 118.294L56.875 121.21ZM32.5142 104.903L30.0847 106.663L30.0847 106.663L32.5142 104.903ZM23.4659 75.8693L26.4659 75.8875L26.466 75.8689L26.4658 75.8502L23.4659 75.8693ZM31.7188 48.0284L29.2443 46.3322L29.2413 46.3365L31.7188 48.0284ZM54.8864 28.6392L56.184 31.344L56.184 31.344L54.8864 28.6392ZM121.605 28.7386L120.286 31.4328L120.296 31.4382L120.308 31.4435L121.605 28.7386ZM144.773 48.1278L142.298 49.8241L142.305 49.8334L144.773 48.1278ZM153.324 75.8693L156.324 75.8875L156.324 75.8688L156.324 75.8501L153.324 75.8693ZM143.977 104.903L146.398 106.676L143.977 104.903ZM119.915 121.21L119.192 118.299L116.915 118.864V121.21H119.915ZM119.915 122.403H116.915V124.927L119.401 125.359L119.915 122.403ZM140.497 131.75L138.617 134.088L138.631 134.099L138.645 134.11L140.497 131.75ZM155.213 149.946L152.53 151.288L152.537 151.302L152.545 151.317L155.213 149.946ZM160.881 173.71L163.881 173.728L163.881 173.708L163.881 173.687L160.881 173.71ZM151.534 203.142L149.094 201.397L149.094 201.397L151.534 203.142ZM125.881 223.426L124.653 220.689L124.647 220.692L125.881 223.426ZM110.27 201.452L111.505 204.186L111.517 204.18L111.529 204.175L110.27 201.452ZM124.588 189.619L127.079 191.291L127.084 191.283L127.089 191.276L124.588 189.619ZM129.759 171.722L132.758 171.751L132.759 171.722L132.758 171.694L129.759 171.722ZM124.19 152.929L121.685 154.579L121.692 154.59L121.699 154.6L124.19 152.929ZM109.574 140.102L110.927 137.425L110.927 137.425L109.574 140.102ZM67.017 140.102L65.6754 137.419L65.6754 137.419L67.017 140.102ZM52.3011 152.929L49.7956 151.279L49.7956 151.279L52.3011 152.929ZM47.0312 171.722L50.0311 171.751L50.0314 171.722L50.0311 171.694L47.0312 171.722ZM51.9034 189.619L49.3873 191.253L49.3997 191.272L49.4123 191.291L51.9034 189.619ZM66.321 201.452L65.0731 204.18L65.0851 204.185L65.0972 204.191L66.321 201.452ZM106.392 106.793L105.01 104.13L105.01 104.13L106.392 106.793ZM118.722 95.4574L116.183 93.858L116.176 93.8705L116.168 93.8831L118.722 95.4574ZM123.395 78.4545L126.395 78.4851L126.395 78.4542L126.395 78.4233L123.395 78.4545ZM118.821 61.75L116.261 63.3143L116.269 63.3272L116.277 63.34L118.821 61.75ZM106.591 50.7131L105.236 53.3895L105.249 53.3964L105.263 53.4031L106.591 50.7131ZM69.9006 50.7131L71.2286 53.4031L71.2354 53.3998L71.2422 53.3963L69.9006 50.7131ZM53.3949 78.4545L56.3947 78.4851L56.395 78.4542L56.3947 78.4233L53.3949 78.4545ZM57.7699 95.4574L60.3237 93.8831L60.3237 93.8831L57.7699 95.4574ZM70.0994 106.793L68.7175 109.455L68.7243 109.459L68.7312 109.462L70.0994 106.793ZM88.3949 227.784C74.4874 227.784 62.3239 225.391 51.8384 220.689L49.3832 226.163C60.7727 231.271 73.7986 233.784 88.3949 233.784V227.784ZM51.8447 220.692C41.3938 215.976 33.3165 209.532 27.4968 201.397L22.6169 204.888C29.1267 213.987 38.0854 221.066 49.3769 226.161L51.8447 220.692ZM27.4968 201.397C21.7147 193.314 18.8464 184.126 18.909 173.728L12.9091 173.692C12.8392 185.302 16.0694 195.735 22.6169 204.888L27.4968 201.397ZM18.909 173.687C18.8461 165.506 20.5104 158.054 23.8672 151.278L18.4908 148.614C14.6885 156.289 12.8395 164.679 12.9092 173.733L18.909 173.687ZM23.8623 151.288C27.3143 144.384 31.9697 138.674 37.8344 134.119L34.1542 129.381C27.5568 134.504 22.3353 140.925 18.4957 148.604L23.8623 151.288ZM37.85 134.107C43.6959 129.505 50.1951 126.599 57.3847 125.36L56.3653 119.447C48.1761 120.859 40.7549 124.184 34.1386 129.393L37.85 134.107ZM59.875 122.403V121.21H53.875V122.403H59.875ZM57.5802 118.294C48.1293 116.009 40.6216 110.981 34.9437 103.143L30.0847 106.663C36.6038 115.663 45.3366 121.506 56.1698 124.126L57.5802 118.294ZM34.9437 103.143C29.24 95.2698 26.4032 86.2222 26.4659 75.8875L20.466 75.8511C20.396 87.3915 23.5914 97.6999 30.0847 106.663L34.9437 103.143ZM26.4658 75.8502C26.4032 66.0183 28.9913 57.3417 34.1962 49.7203L29.2413 46.3365C23.3098 55.0219 20.396 64.9059 20.466 75.8884L26.4658 75.8502ZM34.1932 49.7246C39.5036 41.9776 46.8024 35.8447 56.184 31.344L53.5888 25.9343C43.3491 30.8466 35.2028 37.6398 29.2443 46.3322L34.1932 49.7246ZM56.184 31.344C65.5325 26.8593 76.2477 24.5795 88.3949 24.5795V18.5795C75.4853 18.5795 63.8615 21.0062 53.5888 25.9343L56.184 31.344ZM88.3949 24.5795C100.399 24.5795 111.007 26.8882 120.286 31.4328L122.925 26.0444C112.715 21.0436 101.183 18.5795 88.3949 18.5795V24.5795ZM120.308 31.4435C129.689 35.9441 136.988 42.0771 142.298 49.824L147.247 46.4316C141.289 37.7392 133.142 30.946 122.903 26.0338L120.308 31.4435ZM142.305 49.8334C147.581 57.4686 150.261 66.1227 150.324 75.8885L156.324 75.8501C156.254 64.9341 153.233 55.0939 147.241 46.4223L142.305 49.8334ZM150.324 75.8511C150.261 86.1899 147.33 95.2472 141.557 103.131L146.398 106.676C152.954 97.7225 156.254 87.4237 156.324 75.8875L150.324 75.8511ZM141.557 103.131C135.796 110.998 128.368 116.02 119.192 118.299L120.638 124.122C131.215 121.495 139.829 115.645 146.398 106.676L141.557 103.131ZM116.915 121.21V122.403H122.915V121.21H116.915ZM119.401 125.359C126.517 126.597 132.909 129.497 138.617 134.088L142.377 129.412C135.888 124.193 128.558 120.862 120.429 119.448L119.401 125.359ZM138.645 134.11C144.447 138.664 149.074 144.376 152.53 151.288L157.896 148.604C154.06 140.932 148.877 134.514 142.35 129.39L138.645 134.11ZM152.545 151.317C156.029 158.1 157.818 165.556 157.881 173.733L163.881 173.687C163.811 164.63 161.821 156.243 157.881 148.575L152.545 151.317ZM157.881 173.692C157.818 184.102 154.884 193.304 149.094 201.397L153.974 204.888C160.514 195.746 163.811 185.326 163.881 173.728L157.881 173.692ZM149.094 201.397C143.277 209.527 135.171 215.972 124.653 220.689L127.108 226.163C138.466 221.07 147.461 213.992 153.974 204.888L149.094 201.397ZM124.647 220.692C114.228 225.393 102.166 227.784 88.3949 227.784V233.784C102.862 233.784 115.791 231.27 127.115 226.161L124.647 220.692ZM88.3949 208.628C97.138 208.628 104.869 207.183 111.505 204.186L109.035 198.718C103.341 201.289 96.4889 202.628 88.3949 202.628V208.628ZM111.529 204.175C118.132 201.122 123.356 196.839 127.079 191.291L122.097 187.948C119.058 192.476 114.738 196.081 109.011 198.729L111.529 204.175ZM127.089 191.276C130.826 185.634 132.687 179.089 132.758 171.751L126.759 171.692C126.697 178.01 125.112 183.396 122.087 187.963L127.089 191.276ZM132.758 171.694C132.687 164.066 130.681 157.221 126.682 151.258L121.699 154.6C124.991 159.509 126.697 165.191 126.759 171.75L132.758 171.694ZM126.696 151.279C122.811 145.379 117.529 140.761 110.927 137.425L108.221 142.78C113.948 145.674 118.411 149.607 121.685 154.579L126.696 151.279ZM110.927 137.425C104.283 134.067 96.748 132.429 88.3949 132.429V138.429C95.9508 138.429 102.535 139.906 108.221 142.78L110.927 137.425ZM88.3949 132.429C79.979 132.429 72.3819 134.066 65.6754 137.419L68.3587 142.786C74.1143 139.908 80.7691 138.429 88.3949 138.429V132.429ZM65.6754 137.419C59.0066 140.753 53.6859 145.372 49.7956 151.279L54.8067 154.579C58.0754 149.615 62.5653 145.682 68.3587 142.786L65.6754 137.419ZM49.7956 151.279C45.8588 157.257 43.96 164.117 44.0314 171.75L50.0311 171.694C49.9699 165.141 51.5844 159.472 54.8067 154.579L49.7956 151.279ZM44.0314 171.692C43.9601 179.035 45.7134 185.595 49.3873 191.253L54.4195 187.985C51.4646 183.435 49.9698 178.063 50.0311 171.751L44.0314 171.692ZM49.4123 191.291C53.1404 196.847 58.4048 201.129 65.0731 204.18L67.569 198.724C61.7751 196.073 57.4278 192.468 54.3945 187.948L49.4123 191.291ZM65.0972 204.191C71.795 207.183 79.588 208.628 88.3949 208.628V202.628C80.2321 202.628 73.3092 201.288 67.5448 198.713L65.0972 204.191ZM88.3949 113.869C95.5666 113.869 102.052 112.425 107.774 109.455L105.01 104.13C100.259 106.596 94.7459 107.869 88.3949 107.869V113.869ZM107.774 109.455C113.474 106.497 117.996 102.351 121.275 97.0316L116.168 93.8831C113.481 98.242 109.784 101.652 105.01 104.13L107.774 109.455ZM121.26 97.0567C124.644 91.6863 126.324 85.4597 126.395 78.4851L120.395 78.4239C120.334 84.4418 118.898 89.5504 116.183 93.858L121.26 97.0567ZM126.395 78.4233C126.323 71.5819 124.677 65.4594 121.365 60.16L116.277 63.34C118.931 67.586 120.334 72.5999 120.395 78.4858L126.395 78.4233ZM121.381 60.1857C118.155 54.9068 113.641 50.8478 107.919 48.023L105.263 53.4031C110.014 55.7488 113.654 59.0478 116.261 63.3143L121.381 60.1857ZM107.946 48.0366C102.222 45.1382 95.6778 43.7358 88.3949 43.7358V49.7358C94.8999 49.7358 100.487 50.9849 105.236 53.3895L107.946 48.0366ZM88.3949 43.7358C80.9883 43.7358 74.3489 45.1348 68.5589 48.0298L71.2422 53.3963C76.0583 50.9883 81.7485 49.7358 88.3949 49.7358V43.7358ZM68.5726 48.023C62.8506 50.8478 58.3366 54.9068 55.1106 60.1857L60.2303 63.3143C62.8377 59.0478 66.4771 55.7488 71.2286 53.4031L68.5726 48.023ZM55.1106 60.1857C51.8617 65.502 50.3237 71.639 50.3951 78.4858L56.3947 78.4233C56.3335 72.5428 57.6459 67.5434 60.2303 63.3143L55.1106 60.1857ZM50.395 78.4239C50.3238 85.4036 51.8953 91.6445 55.2161 97.0316L60.3237 93.8831C57.6786 89.5922 56.3334 84.4979 56.3947 78.4851L50.395 78.4239ZM55.2161 97.0316C58.4951 102.351 63.018 106.497 68.7175 109.455L71.4814 104.13C66.7074 101.652 63.0106 98.242 60.3237 93.8831L55.2161 97.0316ZM68.7312 109.462C74.5196 112.429 81.1 113.869 88.3949 113.869V107.869C81.9019 107.869 76.2853 106.592 71.4677 104.123L68.7312 109.462Z" fill="#BDBDBD" mask="url(#path-1-outside-1_727_719)"/>
</svg>
