<svg width="154" height="252" viewBox="0 0 154 252" fill="none" xmlns="http://www.w3.org/2000/svg">
<mask id="path-1-outside-1_727_702" maskUnits="userSpaceOnUse" x="16" y="18" width="141" height="213" fill="black">
<rect fill="white" x="16" y="18" width="141" height="213"/>
<path d="M19.5881 228V205.727L88.4943 134.335C95.8523 126.58 101.918 119.785 106.69 113.952C111.529 108.052 115.142 102.451 117.528 97.1477C119.915 91.8447 121.108 86.2102 121.108 80.2443C121.108 73.4829 119.517 67.6496 116.335 62.7443C113.153 57.7727 108.812 53.9612 103.31 51.3097C97.8078 48.5918 91.6099 47.2329 84.7159 47.2329C77.4242 47.2329 71.0606 48.7244 65.625 51.7074C60.1894 54.6903 56.0133 58.8996 53.0966 64.3352C50.1799 69.7708 48.7216 76.1345 48.7216 83.4261H19.3892C19.3892 71.0303 22.2396 60.1922 27.9403 50.9119C33.6411 41.6316 41.4631 34.4394 51.4062 29.3352C61.3494 24.1648 72.6515 21.5795 85.3125 21.5795C98.1061 21.5795 109.375 24.1316 119.119 29.2358C128.93 34.2737 136.586 41.1676 142.088 49.9176C147.59 58.6013 150.341 68.4119 150.341 79.3494C150.341 86.9062 148.916 94.2973 146.065 101.523C143.281 108.748 138.409 116.802 131.449 125.685C124.489 134.501 114.811 145.206 102.415 157.801L61.946 200.159V201.651H153.622V228H19.5881Z"/>
</mask>
<path d="M19.5881 228H16.5881V231H19.5881V228ZM19.5881 205.727L17.4295 203.644L16.5881 204.516V205.727H19.5881ZM88.4943 134.335L90.6529 136.419L90.6618 136.409L90.6707 136.4L88.4943 134.335ZM106.69 113.952L104.371 112.049L104.368 112.052L106.69 113.952ZM117.528 97.1477L114.793 95.9166L117.528 97.1477ZM116.335 62.7443L113.808 64.3615L113.813 64.3692L113.818 64.3769L116.335 62.7443ZM103.31 51.3097L101.981 53.9994L101.994 54.0059L102.007 54.0122L103.31 51.3097ZM48.7216 83.4261V86.4261H51.7216V83.4261H48.7216ZM19.3892 83.4261H16.3892V86.4261H19.3892V83.4261ZM27.9403 50.9119L30.4966 52.4822L27.9403 50.9119ZM51.4062 29.3352L52.7763 32.0041L52.7833 32.0005L52.7903 31.9969L51.4062 29.3352ZM119.119 29.2358L117.727 31.8933L117.738 31.8989L117.749 31.9045L119.119 29.2358ZM142.088 49.9176L139.548 51.5145L139.554 51.5232L142.088 49.9176ZM146.065 101.523L143.275 100.422L143.27 100.433L143.266 100.444L146.065 101.523ZM131.449 125.685L133.804 127.544L133.81 127.535L131.449 125.685ZM102.415 157.801L100.277 155.697L100.261 155.713L100.246 155.729L102.415 157.801ZM61.946 200.159L59.7769 198.087L58.946 198.956V200.159H61.946ZM61.946 201.651H58.946V204.651H61.946V201.651ZM153.622 201.651H156.622V198.651H153.622V201.651ZM153.622 228V231H156.622V228H153.622ZM22.5881 228V205.727H16.5881V228H22.5881ZM21.7466 207.811L90.6529 136.419L86.3358 132.252L17.4295 203.644L21.7466 207.811ZM90.6707 136.4C98.0602 128.611 104.178 121.759 109.012 115.851L104.368 112.052C99.6569 117.811 93.6444 124.548 86.3179 132.27L90.6707 136.4ZM109.01 115.854C113.968 109.81 117.742 103.985 120.264 98.3788L114.793 95.9166C112.543 100.917 109.091 106.294 104.371 112.049L109.01 115.854ZM120.264 98.3788C122.829 92.6786 124.108 86.6234 124.108 80.2443H118.108C118.108 85.7971 117 91.0108 114.793 95.9166L120.264 98.3788ZM124.108 80.2443C124.108 72.9963 122.396 66.5755 118.852 61.1117L113.818 64.3769C116.638 68.7237 118.108 73.9696 118.108 80.2443H124.108ZM118.862 61.1272C115.37 55.6705 110.597 51.4912 104.612 48.6071L102.007 54.0122C107.027 56.4312 110.937 59.8749 113.808 64.3615L118.862 61.1272ZM104.638 48.6199C98.6747 45.674 92.0133 44.2329 84.7159 44.2329V50.2329C91.2064 50.2329 96.9408 51.5097 101.981 53.9994L104.638 48.6199ZM84.7159 44.2329C77.0088 44.2329 70.1317 45.8122 64.1817 49.0774L67.0683 54.3374C71.9896 51.6367 77.8397 50.2329 84.7159 50.2329V44.2329ZM64.1817 49.0774C58.24 52.3381 53.6457 56.9669 50.4531 62.9168L55.7401 65.7537C58.3808 60.8323 62.1388 57.0426 67.0683 54.3374L64.1817 49.0774ZM50.4531 62.9168C47.2632 68.8615 45.7216 75.7295 45.7216 83.4261H51.7216C51.7216 76.5394 53.0966 70.6801 55.7401 65.7537L50.4531 62.9168ZM48.7216 80.4261H19.3892V86.4261H48.7216V80.4261ZM22.3892 83.4261C22.3892 71.5063 25.1244 61.2276 30.4966 52.4822L25.3841 49.3417C19.3548 59.1569 16.3892 70.5543 16.3892 83.4261H22.3892ZM30.4966 52.4822C35.9021 43.6825 43.3081 36.8644 52.7763 32.0041L50.0362 26.6663C39.618 32.0143 31.3801 39.5808 25.3841 49.3417L30.4966 52.4822ZM52.7903 31.9969C62.2533 27.0761 73.0702 24.5795 85.3125 24.5795V18.5795C72.2329 18.5795 60.4456 21.2534 50.0222 26.6736L52.7903 31.9969ZM85.3125 24.5795C97.7005 24.5795 108.478 27.0482 117.727 31.8933L120.511 26.5783C110.272 21.215 98.5117 18.5795 85.3125 18.5795V24.5795ZM117.749 31.9045C127.114 36.7136 134.352 43.2509 139.548 51.5145L144.628 48.3207C138.82 39.0843 130.746 31.8338 120.49 26.5671L117.749 31.9045ZM139.554 51.5232C144.732 59.6955 147.341 68.9424 147.341 79.3494H153.341C153.341 67.8814 150.448 57.5071 144.622 48.312L139.554 51.5232ZM147.341 79.3494C147.341 86.5188 145.991 93.537 143.275 100.422L148.856 102.624C151.841 95.0577 153.341 87.2937 153.341 79.3494H147.341ZM143.266 100.444C140.626 107.297 135.94 115.089 129.087 123.834L133.81 127.535C140.878 118.515 145.937 110.2 148.865 102.601L143.266 100.444ZM129.094 123.826C122.228 132.522 112.634 143.141 100.277 155.697L104.553 159.906C116.987 147.272 126.749 136.48 133.804 127.544L129.094 123.826ZM100.246 155.729L59.7769 198.087L64.1152 202.231L104.584 159.874L100.246 155.729ZM58.946 200.159V201.651H64.946V200.159H58.946ZM61.946 204.651H153.622V198.651H61.946V204.651ZM150.622 201.651V228H156.622V201.651H150.622ZM153.622 225H19.5881V231H153.622V225Z" fill="#BDBDBD" mask="url(#path-1-outside-1_727_702)"/>
</svg>
