<svg width="169" height="252" viewBox="0 0 169 252" fill="none" xmlns="http://www.w3.org/2000/svg">
<mask id="path-1-outside-1_727_704" maskUnits="userSpaceOnUse" x="12" y="21" width="160" height="210" fill="black">
<rect fill="white" x="12" y="21" width="160" height="210"/>
<path d="M15.3125 188.227V163.369L103.31 24.3636H122.898V60.9545H110.469L47.5284 160.585V162.176H168.139V188.227H15.3125ZM111.861 228V180.67L112.06 169.335V24.3636H141.193V228H111.861Z"/>
</mask>
<path d="M15.3125 188.227H12.3125V191.227H15.3125V188.227ZM15.3125 163.369L12.7777 161.765L12.3125 162.5V163.369H15.3125ZM103.31 24.3636V21.3636H101.658L100.775 22.759L103.31 24.3636ZM122.898 24.3636H125.898V21.3636H122.898V24.3636ZM122.898 60.9545V63.9545H125.898V60.9545H122.898ZM110.469 60.9545V57.9545H108.815L107.932 59.3523L110.469 60.9545ZM47.5284 160.585L44.9921 158.983L44.5284 159.717V160.585H47.5284ZM47.5284 162.176H44.5284V165.176H47.5284V162.176ZM168.139 162.176H171.139V159.176H168.139V162.176ZM168.139 188.227V191.227H171.139V188.227H168.139ZM111.861 228H108.861V231H111.861V228ZM111.861 180.67L108.861 180.618L108.861 180.644V180.67H111.861ZM112.06 169.335L115.059 169.388L115.06 169.362V169.335H112.06ZM112.06 24.3636V21.3636H109.06V24.3636H112.06ZM141.193 24.3636H144.193V21.3636H141.193V24.3636ZM141.193 228V231H144.193V228H141.193ZM18.3125 188.227V163.369H12.3125V188.227H18.3125ZM17.8473 164.974L105.844 25.9683L100.775 22.759L12.7777 161.765L17.8473 164.974ZM103.31 27.3636H122.898V21.3636H103.31V27.3636ZM119.898 24.3636V60.9545H125.898V24.3636H119.898ZM122.898 57.9545H110.469V63.9545H122.898V57.9545ZM107.932 59.3523L44.9921 158.983L50.0647 162.187L113.005 62.5568L107.932 59.3523ZM44.5284 160.585V162.176H50.5284V160.585H44.5284ZM47.5284 165.176H168.139V159.176H47.5284V165.176ZM165.139 162.176V188.227H171.139V162.176H165.139ZM168.139 185.227H15.3125V191.227H168.139V185.227ZM114.861 228V180.67H108.861V228H114.861ZM114.86 180.723L115.059 169.388L109.06 169.283L108.861 180.618L114.86 180.723ZM115.06 169.335V24.3636H109.06V169.335H115.06ZM112.06 27.3636H141.193V21.3636H112.06V27.3636ZM138.193 24.3636V228H144.193V24.3636H138.193ZM141.193 225H111.861V231H141.193V225Z" fill="#BDBDBD" mask="url(#path-1-outside-1_727_704)"/>
</svg>
