<svg width="162" height="252" viewBox="0 0 162 252" fill="none" xmlns="http://www.w3.org/2000/svg">
<mask id="path-1-outside-1_727_713" maskUnits="userSpaceOnUse" x="13" y="18" width="152" height="216" fill="black">
<rect fill="white" x="13" y="18" width="152" height="216"/>
<path d="M90.6818 230.784C81.6004 230.652 72.6515 228.994 63.8352 225.812C55.0852 222.631 47.1307 217.328 39.9716 209.903C32.8125 202.479 27.0786 192.503 22.7699 179.974C18.5275 167.446 16.4062 151.802 16.4062 133.043C16.4062 115.277 18.1629 99.5009 21.6761 85.7131C25.2557 71.9252 30.393 60.2917 37.0881 50.8125C43.7831 41.267 51.8703 34.0085 61.3494 29.0369C70.8286 24.0653 81.4678 21.5795 93.267 21.5795C105.398 21.5795 116.17 23.9659 125.582 28.7386C134.995 33.5114 142.618 40.107 148.452 48.5256C154.351 56.9441 158.097 66.5227 159.688 77.2614H129.361C127.306 68.7765 123.229 61.8494 117.131 56.4801C111.032 51.1108 103.078 48.4261 93.267 48.4261C78.3523 48.4261 66.7188 54.9223 58.3665 67.9148C50.0805 80.9072 45.9044 98.9706 45.8381 122.105H47.3295C50.8428 116.338 55.1515 111.433 60.2557 107.389C65.4261 103.279 71.1932 100.131 77.5568 97.9432C83.9867 95.6894 90.7481 94.5625 97.8409 94.5625C109.64 94.5625 120.313 97.446 129.858 103.213C139.47 108.914 147.126 116.802 152.827 126.878C158.527 136.954 161.378 148.488 161.378 161.48C161.378 174.473 158.428 186.239 152.528 196.778C146.695 207.318 138.475 215.67 127.869 221.835C117.263 227.934 104.867 230.917 90.6818 230.784ZM90.5824 204.932C98.4044 204.932 105.398 203.009 111.562 199.165C117.727 195.32 122.599 190.15 126.179 183.653C129.759 177.157 131.548 169.899 131.548 161.878C131.548 154.056 129.792 146.93 126.278 140.5C122.831 134.07 118.059 128.966 111.96 125.188C105.928 121.409 99.0341 119.52 91.2784 119.52C85.3788 119.52 79.91 120.647 74.8722 122.901C69.9006 125.154 65.5256 128.27 61.7472 132.247C57.9688 136.224 54.9858 140.798 52.7983 145.969C50.6771 151.073 49.6165 156.475 49.6165 162.176C49.6165 169.799 51.3731 176.859 54.8864 183.355C58.4659 189.851 63.3381 195.088 69.5028 199.065C75.7339 202.976 82.7604 204.932 90.5824 204.932Z"/>
</mask>
<path d="M90.6818 230.784L90.638 233.784L90.6459 233.784L90.6538 233.784L90.6818 230.784ZM63.8352 225.812L62.81 228.632L62.8168 228.634L63.8352 225.812ZM39.9716 209.903L42.1311 207.821L42.1311 207.821L39.9716 209.903ZM22.7699 179.974L19.9284 180.937L19.9307 180.943L19.933 180.95L22.7699 179.974ZM21.6761 85.7131L18.7724 84.9592L18.769 84.9723L21.6761 85.7131ZM37.0881 50.8125L39.5385 52.5432L39.5442 52.5352L37.0881 50.8125ZM61.3494 29.0369L59.956 26.3802L59.956 26.3802L61.3494 29.0369ZM125.582 28.7386L124.226 31.4143L124.226 31.4143L125.582 28.7386ZM148.452 48.5256L145.986 50.2342L145.99 50.2407L145.995 50.2473L148.452 48.5256ZM159.688 77.2614V80.2614H163.165L162.655 76.8217L159.688 77.2614ZM129.361 77.2614L126.445 77.9675L127.001 80.2614H129.361V77.2614ZM117.131 56.4801L119.113 54.2284L119.113 54.2284L117.131 56.4801ZM58.3665 67.9148L55.8429 66.2925L55.8371 66.3016L58.3665 67.9148ZM45.8381 122.105L42.8381 122.097L42.8295 125.105H45.8381V122.105ZM47.3295 122.105V125.105H49.0148L49.8916 123.666L47.3295 122.105ZM60.2557 107.389L62.1186 109.741L62.1224 109.738L60.2557 107.389ZM77.5568 97.9432L78.5321 100.78L78.5406 100.777L78.5492 100.774L77.5568 97.9432ZM129.858 103.213L128.307 105.781L128.317 105.787L128.328 105.793L129.858 103.213ZM152.827 126.878L155.438 125.401L155.438 125.401L152.827 126.878ZM152.528 196.778L149.911 195.313L149.907 195.319L149.904 195.326L152.528 196.778ZM127.869 221.835L129.365 224.436L129.377 224.429L127.869 221.835ZM111.562 199.165L109.975 196.619L109.975 196.619L111.562 199.165ZM126.179 183.653L128.806 185.101L126.179 183.653ZM126.278 140.5L123.634 141.917L123.64 141.928L123.646 141.938L126.278 140.5ZM111.96 125.188L110.368 127.73L110.374 127.734L110.38 127.738L111.96 125.188ZM74.8722 122.901L73.6471 120.162L73.6403 120.165L73.6335 120.168L74.8722 122.901ZM61.7472 132.247L63.9222 134.313L63.9222 134.313L61.7472 132.247ZM52.7983 145.969L50.0354 144.8L50.0317 144.809L50.028 144.817L52.7983 145.969ZM54.8864 183.355L52.2476 184.782L52.2532 184.793L52.2589 184.803L54.8864 183.355ZM69.5028 199.065L67.8765 201.586L67.8922 201.596L67.908 201.606L69.5028 199.065ZM90.7256 227.784C81.9873 227.657 73.3673 226.063 64.8536 222.991L62.8168 228.634C71.9357 231.925 81.2135 233.646 90.638 233.784L90.7256 227.784ZM64.8605 222.993C56.5842 219.984 49.0077 214.952 42.1311 207.821L37.8121 211.986C45.2536 219.703 53.5863 225.278 62.81 228.632L64.8605 222.993ZM42.1311 207.821C35.3494 200.788 29.8122 191.227 25.6068 178.999L19.933 180.95C24.345 193.779 30.2756 204.17 37.8121 211.986L42.1311 207.821ZM25.6114 179.012C21.5077 166.894 19.4062 151.6 19.4062 133.043H13.4062C13.4062 152.004 15.5472 167.998 19.9284 180.937L25.6114 179.012ZM19.4062 133.043C19.4062 115.468 21.1447 99.9485 24.5832 86.4538L18.769 84.9723C15.181 99.0534 13.4062 115.087 13.4062 133.043H19.4062ZM24.5799 86.4669C28.0885 72.9523 33.0937 61.6681 39.5385 52.5432L34.6376 49.0818C27.6923 58.9153 22.4229 70.8981 18.7724 84.9592L24.5799 86.4669ZM39.5442 52.5352C45.9896 43.3457 53.7243 36.4237 62.7428 31.6937L59.956 26.3802C50.0162 31.5933 41.5767 39.1884 34.632 49.0898L39.5442 52.5352ZM62.7428 31.6937C71.7495 26.9699 81.9026 24.5795 93.267 24.5795V18.5795C81.033 18.5795 69.9077 21.1607 59.956 26.3802L62.7428 31.6937ZM93.267 24.5795C104.997 24.5795 115.292 26.8846 124.226 31.4143L126.939 26.0629C117.047 21.0472 105.798 18.5795 93.267 18.5795V24.5795ZM124.226 31.4143C133.208 35.9689 140.445 42.2378 145.986 50.2342L150.918 46.8169C144.792 37.9762 136.782 31.0538 126.939 26.0629L124.226 31.4143ZM145.995 50.2473C151.612 58.2626 155.193 67.3971 156.72 77.701L162.655 76.8217C161 65.6484 157.091 55.6257 150.908 46.8039L145.995 50.2473ZM159.688 74.2614H129.361V80.2614H159.688V74.2614ZM132.277 76.5552C130.088 67.5186 125.709 60.0357 119.113 54.2284L115.148 58.7318C120.749 63.6632 124.524 70.0345 126.445 77.9675L132.277 76.5552ZM119.113 54.2284C112.358 48.2814 103.649 45.4261 93.267 45.4261V51.4261C102.506 51.4261 109.706 53.9402 115.148 58.7318L119.113 54.2284ZM93.267 45.4261C77.2884 45.4261 64.7235 52.4783 55.8429 66.2925L60.89 69.537C68.714 57.3664 79.4162 51.4261 93.267 51.4261V45.4261ZM55.8371 66.3016C47.1283 79.957 42.9052 98.6594 42.8381 122.097L48.8381 122.114C48.9035 99.2818 53.0327 81.8574 60.8959 69.5279L55.8371 66.3016ZM45.8381 125.105H47.3295V119.105H45.8381V125.105ZM49.8916 123.666C53.2273 118.19 57.3026 113.556 62.1186 109.741L58.3928 105.038C53.0004 109.31 48.4583 114.486 44.7675 120.544L49.8916 123.666ZM62.1224 109.738C67.0206 105.844 72.485 102.859 78.5321 100.78L76.5816 95.1061C69.9013 97.4025 63.8317 100.714 58.389 105.041L62.1224 109.738ZM78.5492 100.774C84.6472 98.6368 91.072 97.5625 97.8409 97.5625V91.5625C90.4242 91.5625 83.3263 92.7419 76.5645 95.1121L78.5492 100.774ZM97.8409 97.5625C109.126 97.5625 119.257 100.313 128.307 105.781L131.409 100.645C121.368 94.5789 110.154 91.5625 97.8409 91.5625V97.5625ZM128.328 105.793C137.472 111.217 144.763 118.718 150.216 128.355L155.438 125.401C149.489 114.886 141.467 106.61 131.388 100.633L128.328 105.793ZM150.216 128.355C155.631 137.927 158.378 148.941 158.378 161.48H164.378C164.378 148.034 161.423 135.98 155.438 125.401L150.216 128.355ZM158.378 161.48C158.378 173.999 155.541 185.255 149.911 195.313L155.146 198.244C161.315 187.223 164.378 174.946 164.378 161.48H158.378ZM149.904 195.326C144.338 205.382 136.508 213.344 126.362 219.242L129.377 224.429C140.443 217.997 149.052 209.254 155.153 198.231L149.904 195.326ZM126.374 219.235C116.301 225.027 104.448 227.913 90.7099 227.784L90.6538 233.784C105.287 233.921 118.226 230.841 129.365 224.436L126.374 219.235ZM90.5824 207.932C98.9209 207.932 106.472 205.875 113.15 201.71L109.975 196.619C104.323 200.144 97.8878 201.932 90.5824 201.932V207.932ZM113.15 201.71C119.759 197.589 124.985 192.036 128.806 185.101L123.551 182.206C120.214 188.263 115.696 193.052 109.975 196.619L113.15 201.71ZM128.806 185.101C132.65 178.126 134.548 170.363 134.548 161.878H128.548C128.548 169.435 126.867 176.189 123.551 182.206L128.806 185.101ZM134.548 161.878C134.548 153.588 132.682 145.962 128.911 139.062L123.646 141.938C126.902 147.898 128.548 154.524 128.548 161.878H134.548ZM128.922 139.083C125.231 132.196 120.095 126.698 113.54 122.637L110.38 127.738C116.023 131.234 120.432 135.944 123.634 141.917L128.922 139.083ZM113.553 122.645C107.001 118.541 99.545 116.52 91.2784 116.52V122.52C98.5232 122.52 104.855 124.277 110.368 127.73L113.553 122.645ZM91.2784 116.52C84.9862 116.52 79.0965 117.724 73.6471 120.162L76.0973 125.639C80.7236 123.569 85.7714 122.52 91.2784 122.52V116.52ZM73.6335 120.168C68.308 122.582 63.6155 125.925 59.5722 130.181L63.9222 134.313C67.4357 130.615 71.4932 127.726 76.1108 125.633L73.6335 120.168ZM59.5722 130.181C55.5396 134.426 52.36 139.305 50.0354 144.8L55.5612 147.138C57.6116 142.291 60.3979 138.023 63.9222 134.313L59.5722 130.181ZM50.028 144.817C47.7504 150.298 46.6165 156.093 46.6165 162.176H52.6165C52.6165 156.858 53.6038 151.848 55.5686 147.12L50.028 144.817ZM46.6165 162.176C46.6165 170.281 48.4894 177.833 52.2476 184.782L57.5252 181.928C54.2568 175.885 52.6165 169.318 52.6165 162.176H46.6165ZM52.2589 184.803C56.0754 191.729 61.2895 197.337 67.8765 201.586L71.1292 196.544C65.3866 192.84 60.8565 187.973 57.5139 181.907L52.2589 184.803ZM67.908 201.606C74.6475 205.836 82.2335 207.932 90.5824 207.932V201.932C83.2873 201.932 76.8203 200.116 71.0977 196.524L67.908 201.606Z" fill="#BDBDBD" mask="url(#path-1-outside-1_727_713)"/>
</svg>
