<svg width="150" height="252" viewBox="0 0 150 252" fill="none" xmlns="http://www.w3.org/2000/svg">
<mask id="path-1-outside-1_727_705" maskUnits="userSpaceOnUse" x="16" y="21" width="144" height="213" fill="black">
<rect fill="white" x="16" y="21" width="144" height="213"/>
<path d="M86.804 230.784C74.3419 230.784 63.1392 228.398 53.196 223.625C43.3191 218.786 35.4309 212.157 29.5312 203.739C23.6316 195.32 20.483 185.708 20.0852 174.903H49.9148C50.6439 183.653 54.5218 190.846 61.5483 196.48C68.5748 202.115 76.9934 204.932 86.804 204.932C94.626 204.932 101.553 203.142 107.585 199.562C113.684 195.917 118.456 190.912 121.903 184.548C125.417 178.185 127.173 170.926 127.173 162.773C127.173 154.487 125.384 147.096 121.804 140.599C118.224 134.103 113.286 128.999 106.989 125.287C100.758 121.575 93.5985 119.686 85.5114 119.619C79.3466 119.619 73.1487 120.68 66.9176 122.801C60.6866 124.922 55.6487 127.706 51.804 131.153L23.6648 126.977L35.0994 24.3636H147.06V50.7131H60.6534L54.1903 107.688H55.3835C59.3608 103.843 64.6307 100.628 71.1932 98.0426C77.822 95.4574 84.9148 94.1648 92.4716 94.1648C104.867 94.1648 115.904 97.1146 125.582 103.014C135.327 108.914 142.983 116.968 148.551 127.176C154.186 137.318 156.97 148.985 156.903 162.176C156.97 175.367 153.987 187.134 147.955 197.474C141.989 207.815 133.703 215.969 123.097 221.935C112.557 227.834 100.459 230.784 86.804 230.784Z"/>
</mask>
<path d="M53.196 223.625L51.8761 226.319L51.887 226.324L51.8978 226.33L53.196 223.625ZM29.5312 203.739L27.0745 205.46L29.5312 203.739ZM20.0852 174.903V171.903H16.9728L17.0873 175.014L20.0852 174.903ZM49.9148 174.903L52.9044 174.654L52.6752 171.903H49.9148V174.903ZM61.5483 196.48L59.6715 198.821V198.821L61.5483 196.48ZM107.585 199.562L109.116 202.142L109.125 202.137L107.585 199.562ZM121.903 184.548L119.277 183.098L119.271 183.109L119.266 183.119L121.903 184.548ZM121.804 140.599L124.431 139.152L121.804 140.599ZM106.989 125.287L105.453 127.864L105.465 127.871L106.989 125.287ZM85.5114 119.619L85.536 116.619L85.5237 116.619H85.5114V119.619ZM66.9176 122.801L65.9508 119.961L66.9176 122.801ZM51.804 131.153L51.3636 134.121L52.7574 134.328L53.8066 133.387L51.804 131.153ZM23.6648 126.977L20.6832 126.645L20.3628 129.52L23.2244 129.945L23.6648 126.977ZM35.0994 24.3636V21.3636H32.4152L32.1179 24.0314L35.0994 24.3636ZM147.06 24.3636H150.06V21.3636H147.06V24.3636ZM147.06 50.7131V53.7131H150.06V50.7131H147.06ZM60.6534 50.7131V47.7131H57.9745L57.6725 50.3749L60.6534 50.7131ZM54.1903 107.688L51.2095 107.349L50.8308 110.688H54.1903V107.688ZM55.3835 107.688V110.688H56.5965L57.4686 109.844L55.3835 107.688ZM71.1932 98.0426L70.1031 95.2476L70.0936 95.2514L71.1932 98.0426ZM125.582 103.014L124.021 105.576L124.029 105.58L125.582 103.014ZM148.551 127.176L145.917 128.613L145.923 128.623L145.929 128.633L148.551 127.176ZM156.903 162.176L153.903 162.161L153.903 162.176L153.903 162.191L156.903 162.176ZM147.955 197.474L145.363 195.963L145.36 195.969L145.356 195.975L147.955 197.474ZM123.097 221.935L124.562 224.552L124.567 224.549L123.097 221.935ZM86.804 227.784C74.7326 227.784 63.9825 225.475 54.4942 220.92L51.8978 226.33C62.2959 231.321 73.9511 233.784 86.804 233.784V227.784ZM54.5159 220.931C45.0612 216.299 37.5766 209.992 31.988 202.017L27.0745 205.46C33.2851 214.323 41.577 221.273 51.8761 226.319L54.5159 220.931ZM31.988 202.017C26.438 194.097 23.4608 185.051 23.0832 174.793L17.0873 175.014C17.5051 186.365 20.8253 196.543 27.0745 205.46L31.988 202.017ZM20.0852 177.903H49.9148V171.903H20.0852V177.903ZM46.9251 175.153C47.7246 184.746 52.0216 192.686 59.6715 198.821L63.4251 194.14C57.022 189.005 53.5633 182.56 52.9044 174.654L46.9251 175.153ZM59.6715 198.821C67.279 204.921 76.376 207.932 86.804 207.932V201.932C77.6108 201.932 69.8706 199.308 63.4251 194.14L59.6715 198.821ZM86.804 207.932C95.1011 207.932 102.569 206.028 109.116 202.142L106.054 196.983C100.537 200.256 94.1508 201.932 86.804 201.932V207.932ZM109.125 202.137C115.694 198.21 120.843 192.805 124.541 185.977L119.266 183.119C116.07 189.019 111.673 193.624 106.046 196.988L109.125 202.137ZM124.53 185.998C128.317 179.139 130.173 171.37 130.173 162.773H124.173C124.173 170.482 122.517 177.231 119.277 183.098L124.53 185.998ZM130.173 162.773C130.173 154.041 128.283 146.141 124.431 139.152L119.176 142.047C122.484 148.05 124.173 154.933 124.173 162.773H130.173ZM124.431 139.152C120.596 132.192 115.28 126.692 108.512 122.703L105.465 127.871C111.292 131.306 115.852 136.015 119.176 142.047L124.431 139.152ZM108.524 122.71C101.785 118.695 94.0925 116.69 85.536 116.619L85.4868 122.619C93.1044 122.682 99.7304 124.455 105.453 127.864L108.524 122.71ZM85.5114 116.619C78.9961 116.619 72.472 117.741 65.9508 119.961L67.8844 125.641C73.8253 123.619 79.6971 122.619 85.5114 122.619V116.619ZM65.9508 119.961C59.4382 122.178 54.0174 125.14 49.8013 128.92L53.8066 133.387C57.28 130.273 61.9349 127.666 67.8844 125.641L65.9508 119.961ZM52.2444 128.186L24.1052 124.01L23.2244 129.945L51.3636 134.121L52.2444 128.186ZM26.6463 127.31L38.081 24.6959L32.1179 24.0314L20.6832 126.645L26.6463 127.31ZM35.0994 27.3636H147.06V21.3636H35.0994V27.3636ZM144.06 24.3636V50.7131H150.06V24.3636H144.06ZM147.06 47.7131H60.6534V53.7131H147.06V47.7131ZM57.6725 50.3749L51.2095 107.349L57.1712 108.026L63.6343 51.0512L57.6725 50.3749ZM54.1903 110.688H55.3835V104.688H54.1903V110.688ZM57.4686 109.844C61.0959 106.338 66.0004 103.313 72.2928 100.834L70.0936 95.2514C63.261 97.943 57.6257 101.348 53.2985 105.531L57.4686 109.844ZM72.2832 100.838C78.5434 98.3961 85.2643 97.1648 92.4716 97.1648V91.1648C84.5652 91.1648 77.1005 92.5187 70.1031 95.2477L72.2832 100.838ZM92.4716 97.1648C104.37 97.1648 114.857 99.9894 124.021 105.576L127.144 100.453C116.952 94.2397 105.365 91.1648 92.4716 91.1648V97.1648ZM124.029 105.58C133.31 111.2 140.598 118.86 145.917 128.613L151.185 125.74C145.368 115.076 137.344 106.628 127.136 100.448L124.029 105.58ZM145.929 128.633C151.28 138.266 153.968 149.413 153.903 162.161L159.903 162.191C159.972 148.557 157.091 136.37 151.174 125.719L145.929 128.633ZM153.903 162.191C153.967 174.902 151.098 186.131 145.363 195.963L150.546 198.986C156.875 188.136 159.972 175.832 159.903 162.161L153.903 162.191ZM145.356 195.975C139.665 205.84 131.772 213.613 121.626 219.32L124.567 224.549C135.633 218.325 144.313 209.79 150.553 198.974L145.356 195.975ZM121.631 219.317C111.595 224.935 100.014 227.784 86.804 227.784V233.784C100.904 233.784 113.519 230.734 124.562 224.552L121.631 219.317Z" fill="#BDBDBD" mask="url(#path-1-outside-1_727_705)"/>
</svg>
