<svg width="142" height="252" viewBox="0 0 142 252" fill="none" xmlns="http://www.w3.org/2000/svg">
<mask id="path-1-outside-1_727_701" maskUnits="userSpaceOnUse" x="13" y="21" width="87" height="210" fill="black">
<rect fill="white" x="13" y="21" width="87" height="210"/>
<path d="M96.8466 24.3636V228H66.0227V55.1875H64.8295L16.108 87.0057V57.5739L66.9176 24.3636H96.8466Z"/>
</mask>
<path d="M96.8466 24.3636H99.8466V21.3636H96.8466V24.3636ZM96.8466 228V231H99.8466V228H96.8466ZM66.0227 228H63.0227V231H66.0227V228ZM66.0227 55.1875H69.0227V52.1875H66.0227V55.1875ZM64.8295 55.1875V52.1875H63.9367L63.1892 52.6757L64.8295 55.1875ZM16.108 87.0057H13.108V92.5479L17.7483 89.5175L16.108 87.0057ZM16.108 57.5739L14.4666 55.0627L13.108 55.9507V57.5739H16.108ZM66.9176 24.3636V21.3636H66.0241L65.2763 21.8525L66.9176 24.3636ZM93.8466 24.3636V228H99.8466V24.3636H93.8466ZM96.8466 225H66.0227V231H96.8466V225ZM69.0227 228V55.1875H63.0227V228H69.0227ZM66.0227 52.1875H64.8295V58.1875H66.0227V52.1875ZM63.1892 52.6757L14.4676 84.4939L17.7483 89.5175L66.4699 57.6993L63.1892 52.6757ZM19.108 87.0057V57.5739H13.108V87.0057H19.108ZM17.7493 60.085L68.559 26.8748L65.2763 21.8525L14.4666 55.0627L17.7493 60.085ZM66.9176 27.3636H96.8466V21.3636H66.9176V27.3636Z" fill="#BDBDBD" mask="url(#path-1-outside-1_727_701)"/>
</svg>
