<svg width="162" height="252" viewBox="0 0 162 252" fill="none" xmlns="http://www.w3.org/2000/svg">
<mask id="path-1-outside-1_727_722" maskUnits="userSpaceOnUse" x="13" y="18" width="152" height="216" fill="black">
<rect fill="white" x="13" y="18" width="152" height="216"/>
<path d="M87.3011 21.5795C96.3826 21.6458 105.331 23.303 114.148 26.5511C122.964 29.7992 130.919 35.1023 138.011 42.4602C145.17 49.8182 150.871 59.7614 155.114 72.2898C159.422 84.7519 161.61 100.263 161.676 118.824C161.676 136.655 159.886 152.531 156.307 166.452C152.727 180.306 147.59 192.006 140.895 201.551C134.266 211.097 126.212 218.355 116.733 223.327C107.254 228.298 96.5814 230.784 84.7159 230.784C72.5852 230.784 61.8134 228.398 52.4006 223.625C42.9877 218.852 35.3314 212.257 29.4318 203.838C23.5322 195.353 19.8532 185.609 18.3949 174.605H48.7216C50.7102 183.355 54.7538 190.448 60.8523 195.884C67.017 201.253 74.9716 203.938 84.7159 203.938C99.6307 203.938 111.264 197.441 119.616 184.449C127.969 171.39 132.178 153.161 132.244 129.761H130.653C127.206 135.462 122.898 140.367 117.727 144.477C112.623 148.587 106.889 151.769 100.526 154.023C94.1619 156.277 87.3674 157.403 80.142 157.403C68.4091 157.403 57.7367 154.52 48.125 148.753C38.5133 142.986 30.857 135.064 25.1562 124.989C19.4555 114.913 16.6051 103.412 16.6051 90.4858C16.6051 77.6259 19.5218 65.9593 25.3551 55.4858C31.2547 45.0123 39.4744 36.7263 50.0142 30.6278C60.6203 24.4631 73.0492 21.447 87.3011 21.5795ZM87.4006 47.4318C79.6449 47.4318 72.6515 49.3542 66.4205 53.1989C60.2557 56.9773 55.3835 62.1146 51.804 68.6108C48.2244 75.0407 46.4347 82.1998 46.4347 90.0881C46.4347 97.9763 48.1581 105.135 51.6051 111.565C55.1184 117.929 59.8911 123 65.9233 126.778C72.0218 130.491 78.982 132.347 86.804 132.347C92.6373 132.347 98.0729 131.22 103.111 128.966C108.149 126.712 112.557 123.597 116.335 119.619C120.114 115.576 123.063 111.002 125.185 105.898C127.306 100.794 128.366 95.4242 128.366 89.7898C128.366 82.2992 126.577 75.339 122.997 68.9091C119.484 62.4792 114.645 57.3087 108.48 53.3977C102.315 49.4205 95.2888 47.4318 87.4006 47.4318Z"/>
</mask>
<path d="M87.3011 21.5795L87.2732 24.5794L87.2792 24.5795L87.3011 21.5795ZM138.011 42.4602L135.851 44.5423L135.861 44.5523L138.011 42.4602ZM155.114 72.2898L152.272 73.252L152.275 73.261L152.278 73.2701L155.114 72.2898ZM161.676 118.824L164.676 118.824L164.676 118.813L161.676 118.824ZM156.307 166.452L159.211 167.202L159.212 167.199L156.307 166.452ZM140.895 201.551L138.439 199.828L138.431 199.84L140.895 201.551ZM116.733 223.327L118.126 225.983L118.126 225.983L116.733 223.327ZM52.4006 223.625L51.0439 226.301L51.0439 226.301L52.4006 223.625ZM29.4318 203.838L26.9687 205.551L26.975 205.56L29.4318 203.838ZM18.3949 174.605V171.605H14.9711L15.4209 174.999L18.3949 174.605ZM48.7216 174.605L51.647 173.94L51.1163 171.605H48.7216V174.605ZM60.8523 195.884L58.8562 198.123L58.869 198.134L58.8819 198.146L60.8523 195.884ZM119.616 184.449L122.14 186.071L122.144 186.065L119.616 184.449ZM132.244 129.761L135.244 129.77L135.253 126.761H132.244V129.761ZM130.653 129.761V126.761H128.962L128.086 128.209L130.653 129.761ZM117.727 144.477L115.861 142.129L115.853 142.135L115.846 142.141L117.727 144.477ZM100.526 154.023L99.524 151.195L99.524 151.195L100.526 154.023ZM48.125 148.753L46.5815 151.325L46.5815 151.325L48.125 148.753ZM25.1562 124.989L27.7673 123.511L27.7673 123.511L25.1562 124.989ZM25.3551 55.4858L22.7413 54.0134L22.7377 54.0197L22.7342 54.026L25.3551 55.4858ZM50.0142 30.6278L51.5167 33.2245L51.5218 33.2215L50.0142 30.6278ZM66.4205 53.1989L67.9882 55.7567L67.9958 55.752L66.4205 53.1989ZM51.804 68.6108L54.4252 70.07L54.4315 70.0586L51.804 68.6108ZM51.6051 111.565L48.9611 112.983L48.9698 112.999L48.9788 113.015L51.6051 111.565ZM65.9233 126.778L64.3308 129.321L64.3471 129.331L64.3635 129.341L65.9233 126.778ZM103.111 128.966L104.336 131.704L104.336 131.704L103.111 128.966ZM116.335 119.619L118.51 121.686L118.519 121.677L118.527 121.668L116.335 119.619ZM125.185 105.898L127.955 107.049L127.955 107.049L125.185 105.898ZM122.997 68.9091L120.365 70.3475L120.37 70.358L120.376 70.3683L122.997 68.9091ZM108.48 53.3977L106.854 55.9186L106.863 55.9248L106.873 55.9309L108.48 53.3977ZM87.2792 24.5795C96.0022 24.6431 104.608 26.2337 113.111 29.3662L115.185 23.7361C106.055 20.3724 96.763 18.6485 87.323 18.5796L87.2792 24.5795ZM113.111 29.3662C121.466 32.4444 129.045 37.4812 135.851 44.5423L140.171 40.3782C132.792 32.7234 124.462 27.1541 115.185 23.7361L113.111 29.3662ZM135.861 44.5523C142.632 51.5113 148.133 61.0292 152.272 73.252L157.955 71.3276C153.609 58.4935 147.709 48.1251 140.162 40.3682L135.861 44.5523ZM152.278 73.2701C156.445 85.3216 158.611 100.48 158.676 118.835L164.676 118.813C164.609 100.046 162.4 84.1822 157.949 71.3095L152.278 73.2701ZM158.676 118.824C158.676 136.461 156.905 152.078 153.401 165.705L159.212 167.199C162.868 152.984 164.676 136.85 164.676 118.824H158.676ZM153.402 165.701C149.893 179.284 144.886 190.636 138.439 199.828L143.351 203.274C150.294 193.375 155.562 181.328 159.211 167.202L153.402 165.701ZM138.431 199.84C132.053 209.023 124.355 215.942 115.34 220.67L118.126 225.983C128.069 220.769 136.479 213.17 143.359 203.262L138.431 199.84ZM115.34 220.67C106.335 225.392 96.1496 227.784 84.7159 227.784V233.784C97.0133 233.784 108.172 231.204 118.126 225.983L115.34 220.67ZM84.7159 227.784C72.986 227.784 62.6908 225.479 53.7573 220.949L51.0439 226.301C60.9361 231.316 72.1845 233.784 84.7159 233.784V227.784ZM53.7573 220.949C44.7717 216.393 37.4977 210.12 31.8886 202.116L26.975 205.56C33.1652 214.393 41.2037 221.311 51.0439 226.301L53.7573 220.949ZM31.8949 202.125C26.2882 194.062 22.7692 184.777 21.3689 174.211L15.4209 174.999C16.9373 186.441 20.7762 196.645 26.9687 205.551L31.8949 202.125ZM18.3949 177.605H48.7216V171.605H18.3949V177.605ZM45.7962 175.27C47.9089 184.566 52.2457 192.231 58.8562 198.123L62.8484 193.644C57.2619 188.665 53.5116 182.144 51.647 173.94L45.7962 175.27ZM58.8819 198.146C65.6938 204.079 74.3934 206.938 84.7159 206.938V200.938C75.5498 200.938 68.3403 198.427 62.8226 193.621L58.8819 198.146ZM84.7159 206.938C100.695 206.938 113.259 199.885 122.14 186.071L117.093 182.827C109.269 194.997 98.5668 200.938 84.7159 200.938V206.938ZM122.144 186.065C130.922 172.34 135.177 153.469 135.244 129.77L129.244 129.753C129.179 152.853 125.015 170.44 117.089 182.832L122.144 186.065ZM132.244 126.761H130.653V132.761H132.244V126.761ZM128.086 128.209C124.822 133.608 120.75 138.243 115.861 142.129L119.594 146.826C125.046 142.492 129.591 137.317 133.221 131.314L128.086 128.209ZM115.846 142.141C111.013 146.032 105.579 149.051 99.524 151.195L101.527 156.851C108.2 154.487 114.233 151.142 119.609 146.814L115.846 142.141ZM99.524 151.195C93.504 153.327 87.0503 154.403 80.142 154.403V160.403C87.6846 160.403 94.8199 159.226 101.527 156.851L99.524 151.195ZM80.142 154.403C68.9263 154.403 58.7917 151.654 49.6685 146.18L46.5815 151.325C56.6818 157.385 67.8919 160.403 80.142 160.403V154.403ZM49.6685 146.18C40.5162 140.689 33.2215 133.151 27.7673 123.511L22.5452 126.466C28.4925 136.977 36.5103 145.283 46.5815 151.325L49.6685 146.18ZM27.7673 123.511C22.3502 113.937 19.6051 102.956 19.6051 90.4858H13.6051C13.6051 103.868 16.5608 115.889 22.5452 126.466L27.7673 123.511ZM19.6051 90.4858C19.6051 78.0986 22.4093 66.9403 27.976 56.9455L22.7342 54.026C16.6343 64.9782 13.6051 77.1533 13.6051 90.4858H19.6051ZM27.969 56.9581C33.6017 46.9584 41.4349 39.058 51.5167 33.2245L48.5117 28.0312C37.514 34.3947 28.9077 43.0662 22.7413 54.0134L27.969 56.9581ZM51.5218 33.2215C61.5909 27.3688 73.472 24.451 87.2732 24.5794L87.329 18.5797C72.6265 18.4429 59.6496 21.5573 48.5066 28.0342L51.5218 33.2215ZM87.4006 44.4318C79.1229 44.4318 71.5782 46.4913 64.8451 50.6457L67.9958 55.752C73.7249 52.217 80.1668 50.4318 87.4006 50.4318V44.4318ZM64.8528 50.641C58.2326 54.6986 53.0003 60.2234 49.1765 67.163L54.4315 70.0586C57.7667 64.0057 62.2787 59.256 67.9881 55.7567L64.8528 50.641ZM49.1828 67.1516C45.337 74.0597 43.4347 81.727 43.4347 90.0881H49.4347C49.4347 82.6727 51.1118 76.0217 54.4252 70.07L49.1828 67.1516ZM43.4347 90.0881C43.4347 98.4297 45.2617 106.082 48.9611 112.983L54.2491 110.148C51.0546 104.189 49.4347 97.5229 49.4347 90.0881H43.4347ZM48.9788 113.015C52.7328 119.815 57.8573 125.266 64.3308 129.321L67.5158 124.236C61.9249 120.734 57.5039 116.043 54.2315 110.115L48.9788 113.015ZM64.3635 129.341C70.9763 133.366 78.4861 135.347 86.804 135.347V129.347C79.4779 129.347 73.0673 127.615 67.4831 124.216L64.3635 129.341ZM86.804 135.347C93.035 135.347 98.8908 134.14 104.336 131.704L101.886 126.227C97.255 128.299 92.2396 129.347 86.804 129.347V135.347ZM104.336 131.704C109.729 129.292 114.46 125.949 118.51 121.686L114.16 117.553C110.653 121.245 106.568 124.133 101.886 126.227L104.336 131.704ZM118.527 121.668C122.55 117.362 125.696 112.485 127.955 107.049L122.414 104.746C120.431 109.519 117.677 113.789 114.143 117.571L118.527 121.668ZM127.955 107.049C130.231 101.573 131.366 95.8115 131.366 89.7898H125.366C125.366 95.0369 124.381 100.014 122.414 104.746L127.955 107.049ZM131.366 89.7898C131.366 81.798 129.451 74.3343 125.618 67.4499L120.376 70.3683C123.702 76.3437 125.366 82.8004 125.366 89.7898H131.366ZM125.63 67.4706C121.874 60.5965 116.683 55.0487 110.087 50.8645L106.873 55.9309C112.607 59.5687 117.094 64.3618 120.365 70.3475L125.63 67.4706ZM110.106 50.8768C103.42 46.5631 95.8204 44.4318 87.4006 44.4318V50.4318C94.7572 50.4318 101.21 52.2778 106.854 55.9186L110.106 50.8768Z" fill="#BDBDBD" mask="url(#path-1-outside-1_727_722)"/>
</svg>
