<svg width="314" height="252" viewBox="0 0 314 252" fill="none" xmlns="http://www.w3.org/2000/svg">
<mask id="path-1-outside-1_727_725" maskUnits="userSpaceOnUse" x="13" y="18" width="288" height="217" fill="black">
<rect fill="white" x="13" y="18" width="288" height="217"/>
<path d="M96.8466 24.3636V228H66.0227V55.1875H64.8295L16.108 87.0057V57.5739L66.9176 24.3636H96.8466ZM222.827 231.381C207.116 231.314 193.693 227.171 182.557 218.952C171.42 210.732 162.902 198.767 157.003 183.057C151.103 167.347 148.153 148.421 148.153 126.281C148.153 104.207 151.103 85.3485 157.003 69.7045C162.969 54.0606 171.52 42.1288 182.656 33.9091C193.859 25.6894 207.249 21.5795 222.827 21.5795C238.404 21.5795 251.761 25.7225 262.898 34.0085C274.034 42.2282 282.552 54.16 288.452 69.804C294.418 85.3816 297.401 104.207 297.401 126.281C297.401 148.488 294.451 167.446 288.551 183.156C282.652 198.8 274.134 210.765 262.997 219.051C251.861 227.271 238.471 231.381 222.827 231.381ZM222.827 204.832C236.615 204.832 247.386 198.104 255.142 184.648C262.964 171.191 266.875 151.736 266.875 126.281C266.875 109.378 265.085 95.0928 261.506 83.4261C257.992 71.6932 252.921 62.8106 246.293 56.7784C239.73 50.6799 231.908 47.6307 222.827 47.6307C209.105 47.6307 198.333 54.392 190.511 67.9148C182.689 81.4375 178.745 100.893 178.679 126.281C178.679 143.251 180.436 157.602 183.949 169.335C187.528 181.002 192.599 189.851 199.162 195.884C205.724 201.849 213.613 204.832 222.827 204.832Z"/>
</mask>
<path d="M96.8466 24.3636H99.8466V21.3636H96.8466V24.3636ZM96.8466 228V231H99.8466V228H96.8466ZM66.0227 228H63.0227V231H66.0227V228ZM66.0227 55.1875H69.0227V52.1875H66.0227V55.1875ZM64.8295 55.1875V52.1875H63.9367L63.1892 52.6757L64.8295 55.1875ZM16.108 87.0057H13.108V92.5479L17.7483 89.5175L16.108 87.0057ZM16.108 57.5739L14.4666 55.0627L13.108 55.9507V57.5739H16.108ZM66.9176 24.3636V21.3636H66.0241L65.2763 21.8525L66.9176 24.3636ZM93.8466 24.3636V228H99.8466V24.3636H93.8466ZM96.8466 225H66.0227V231H96.8466V225ZM69.0227 228V55.1875H63.0227V228H69.0227ZM66.0227 52.1875H64.8295V58.1875H66.0227V52.1875ZM63.1892 52.6757L14.4676 84.4939L17.7483 89.5175L66.4699 57.6993L63.1892 52.6757ZM19.108 87.0057V57.5739H13.108V87.0057H19.108ZM17.7493 60.085L68.559 26.8748L65.2763 21.8525L14.4666 55.0627L17.7493 60.085ZM66.9176 27.3636H96.8466V21.3636H66.9176V27.3636ZM222.827 231.381L222.814 234.381H222.827V231.381ZM157.003 183.057L159.811 182.002L159.811 182.002L157.003 183.057ZM157.003 69.7045L154.2 68.6356L154.196 68.646L157.003 69.7045ZM182.656 33.9091L180.882 31.4903L180.875 31.4954L182.656 33.9091ZM262.898 34.0085L261.107 36.4154L261.116 36.4222L262.898 34.0085ZM288.452 69.804L285.645 70.8626L285.647 70.8697L285.65 70.8769L288.452 69.804ZM288.551 183.156L291.358 184.215L291.36 184.211L288.551 183.156ZM262.997 219.051L264.779 221.465L264.788 221.458L262.997 219.051ZM255.142 184.648L252.548 183.14L252.543 183.15L255.142 184.648ZM261.506 83.4261L258.632 84.2867L258.635 84.2964L258.638 84.3061L261.506 83.4261ZM246.293 56.7784L244.25 58.976L244.262 58.9867L244.273 58.9972L246.293 56.7784ZM190.511 67.9148L187.915 66.4127L187.915 66.4127L190.511 67.9148ZM178.679 126.281L175.679 126.273V126.281H178.679ZM183.949 169.335L181.075 170.196L181.078 170.205L181.081 170.215L183.949 169.335ZM199.162 195.884L197.132 198.092L197.138 198.098L197.144 198.103L199.162 195.884ZM222.839 228.381C207.676 228.317 194.895 224.329 184.338 216.538L180.775 221.365C192.492 230.013 206.557 234.312 222.814 234.381L222.839 228.381ZM184.338 216.538C173.759 208.73 165.551 197.286 159.811 182.002L154.194 184.111C160.254 200.248 169.082 212.734 180.775 221.365L184.338 216.538ZM159.811 182.002C154.072 166.718 151.153 148.17 151.153 126.281H145.153C145.153 148.673 148.135 167.975 154.194 184.111L159.811 182.002ZM151.153 126.281C151.153 104.46 154.071 85.9796 159.81 70.7631L154.196 68.646C148.135 84.7173 145.153 103.955 145.153 126.281H151.153ZM159.806 70.7735C165.61 55.5529 173.853 44.1357 184.438 36.3228L180.875 31.4954C169.187 40.1218 160.327 52.5683 154.2 68.6356L159.806 70.7735ZM184.431 36.3279C195.057 28.531 207.806 24.5795 222.827 24.5795V18.5795C206.692 18.5795 192.661 22.8478 180.882 31.4903L184.431 36.3279ZM222.827 24.5795C237.842 24.5795 250.551 28.5611 261.107 36.4154L264.689 31.6017C252.972 22.8839 238.967 18.5795 222.827 18.5795V24.5795ZM261.116 36.4222C271.698 44.2329 279.906 55.6461 285.645 70.8626L291.259 68.7454C285.198 52.6739 276.37 40.2235 264.679 31.5948L261.116 36.4222ZM285.65 70.8769C291.45 86.0211 294.401 104.462 294.401 126.281H300.401C300.401 103.953 297.385 84.7421 291.253 68.731L285.65 70.8769ZM294.401 126.281C294.401 148.237 291.482 166.818 285.743 182.102L291.36 184.211C297.419 168.074 300.401 148.738 300.401 126.281H294.401ZM285.744 182.098C280.005 197.315 271.795 208.766 261.206 216.644L264.788 221.458C276.472 212.765 285.298 200.285 291.358 184.215L285.744 182.098ZM261.216 216.637C250.661 224.428 237.917 228.381 222.827 228.381V234.381C239.025 234.381 253.06 230.114 264.779 221.465L261.216 216.637ZM222.827 207.832C237.841 207.832 249.532 200.39 257.741 186.146L252.543 183.15C245.241 195.818 235.388 201.832 222.827 201.832V207.832ZM257.736 186.155C265.943 172.037 269.875 151.964 269.875 126.281H263.875C263.875 151.507 259.985 170.346 252.548 183.14L257.736 186.155ZM269.875 126.281C269.875 109.185 268.067 94.584 264.374 82.5462L258.638 84.3061C262.103 95.6016 263.875 109.57 263.875 126.281H269.875ZM264.38 82.5656C260.765 70.4947 255.465 61.0692 248.312 54.5596L244.273 58.9972C250.378 64.552 255.22 72.8917 258.632 84.2867L264.38 82.5656ZM248.335 54.5808C241.209 47.9588 232.654 44.6307 222.827 44.6307V50.6307C231.162 50.6307 238.251 53.401 244.25 58.976L248.335 54.5808ZM222.827 44.6307C207.867 44.6307 196.184 52.117 187.915 66.4127L193.108 69.4169C200.483 56.6671 210.343 50.6307 222.827 50.6307V44.6307ZM187.915 66.4127C179.714 80.59 175.746 100.654 175.679 126.273L181.679 126.289C181.745 101.132 185.665 82.285 193.108 69.4169L187.915 66.4127ZM175.679 126.281C175.679 143.439 177.453 158.099 181.075 170.196L186.823 168.475C183.418 157.105 181.679 143.063 181.679 126.281H175.679ZM181.081 170.215C184.761 182.211 190.058 191.59 197.132 198.092L201.192 193.675C195.141 188.112 190.295 179.793 186.817 168.455L181.081 170.215ZM197.144 198.103C204.282 204.592 212.898 207.832 222.827 207.832V201.832C214.327 201.832 207.167 199.107 201.18 193.664L197.144 198.103Z" fill="#BDBDBD" mask="url(#path-1-outside-1_727_725)"/>
</svg>
