<svg width="163" height="252" viewBox="0 0 163 252" fill="none" xmlns="http://www.w3.org/2000/svg">
<mask id="path-1-outside-1_727_703" maskUnits="userSpaceOnUse" x="15" y="18" width="151" height="216" fill="black">
<rect fill="white" x="15" y="18" width="151" height="216"/>
<path d="M90.483 230.784C76.8277 230.784 64.6307 228.431 53.892 223.724C43.2197 219.018 34.768 212.489 28.5369 204.136C22.3722 195.718 19.0578 185.973 18.5938 174.903H49.8153C50.2131 180.936 52.2349 186.172 55.8807 190.614C59.5928 194.989 64.4318 198.369 70.3977 200.756C76.3636 203.142 82.9924 204.335 90.2841 204.335C98.3049 204.335 105.398 202.943 111.562 200.159C117.794 197.375 122.666 193.497 126.179 188.526C129.692 183.488 131.449 177.688 131.449 171.125C131.449 164.297 129.692 158.298 126.179 153.128C122.732 147.891 117.661 143.781 110.966 140.798C104.337 137.815 96.3163 136.324 86.9034 136.324H69.7017V111.267H86.9034C94.4602 111.267 101.089 109.908 106.79 107.19C112.557 104.473 117.064 100.694 120.312 95.8551C123.561 90.9498 125.185 85.2159 125.185 78.6534C125.185 72.3561 123.759 66.8873 120.909 62.2472C118.125 57.5407 114.148 53.8617 108.977 51.2102C103.873 48.5587 97.8409 47.2329 90.8807 47.2329C84.2519 47.2329 78.054 48.4593 72.2869 50.9119C66.5862 53.2983 61.946 56.7453 58.3665 61.2528C54.7869 65.6941 52.8646 71.0303 52.5994 77.2614H22.8693C23.2008 66.2576 26.4489 56.5795 32.6136 48.2273C38.8447 39.875 47.0644 33.3456 57.2727 28.6392C67.4811 23.9328 78.8163 21.5795 91.2784 21.5795C104.337 21.5795 115.606 24.1316 125.085 29.2358C134.631 34.2737 141.989 41.0019 147.159 49.4204C152.396 57.839 154.981 67.053 154.915 77.0625C154.981 88.464 151.799 98.142 145.369 106.097C139.006 114.051 130.521 119.387 119.915 122.105V123.696C133.438 125.751 143.911 131.12 151.335 139.804C158.826 148.488 162.538 159.259 162.472 172.119C162.538 183.322 159.422 193.365 153.125 202.247C146.894 211.13 138.376 218.123 127.571 223.227C116.766 228.265 104.403 230.784 90.483 230.784Z"/>
</mask>
<path d="M53.892 223.724L52.6815 226.469L52.6878 226.472L53.892 223.724ZM28.5369 204.136L26.1165 205.909L26.1244 205.92L26.1324 205.93L28.5369 204.136ZM18.5938 174.903V171.903H15.4654L15.5964 175.029L18.5938 174.903ZM49.8153 174.903L52.8088 174.706L52.6241 171.903H49.8153V174.903ZM55.8807 190.614L53.5619 192.517L53.5774 192.536L53.5932 192.555L55.8807 190.614ZM70.3977 200.756L71.5119 197.97L70.3977 200.756ZM111.562 200.159L110.339 197.42L110.328 197.425L111.562 200.159ZM126.179 188.526L128.629 190.257L128.634 190.249L128.64 190.242L126.179 188.526ZM126.179 153.128L123.673 154.777L123.685 154.796L123.698 154.814L126.179 153.128ZM110.966 140.798L109.735 143.534L109.745 143.539L110.966 140.798ZM69.7017 136.324H66.7017V139.324H69.7017V136.324ZM69.7017 111.267V108.267H66.7017V111.267H69.7017ZM106.79 107.19L105.511 104.477L105.499 104.482L106.79 107.19ZM120.312 95.8551L122.803 97.5271L122.809 97.5193L122.814 97.5114L120.312 95.8551ZM120.909 62.2472L118.327 63.7746L118.34 63.7961L118.353 63.8174L120.909 62.2472ZM108.977 51.2102L107.594 53.8724L107.601 53.8761L107.608 53.8797L108.977 51.2102ZM72.2869 50.9119L73.4453 53.6793L73.4532 53.676L73.461 53.6726L72.2869 50.9119ZM58.3665 61.2528L60.7023 63.1354L60.7091 63.127L60.7158 63.1185L58.3665 61.2528ZM52.5994 77.2614V80.2614H55.4745L55.5967 77.3889L52.5994 77.2614ZM22.8693 77.2614L19.8707 77.171L19.7776 80.2614H22.8693V77.2614ZM32.6136 48.2273L30.2091 46.4334L30.2045 46.4395L30.1999 46.4457L32.6136 48.2273ZM57.2727 28.6392L58.5288 31.3636L57.2727 28.6392ZM125.085 29.2358L123.663 31.8772L123.674 31.8831L123.685 31.8889L125.085 29.2358ZM147.159 49.4204L144.603 50.9905L144.607 50.9978L144.612 51.005L147.159 49.4204ZM154.915 77.0625L151.915 77.0426L151.915 77.0613L151.915 77.0799L154.915 77.0625ZM145.369 106.097L143.036 104.211L143.031 104.217L143.027 104.223L145.369 106.097ZM119.915 122.105L119.17 119.199L116.915 119.777V122.105H119.915ZM119.915 123.696H116.915V126.275L119.464 126.662L119.915 123.696ZM151.335 139.804L149.055 141.753L149.064 141.763L151.335 139.804ZM162.472 172.119L159.472 172.104L159.472 172.12L159.472 172.137L162.472 172.119ZM153.125 202.247L150.678 200.512L150.673 200.518L150.669 200.524L153.125 202.247ZM127.571 223.227L128.839 225.946L128.846 225.943L128.852 225.94L127.571 223.227ZM90.483 227.784C77.1746 227.784 65.3979 225.492 55.0963 220.977L52.6878 226.472C63.8635 231.37 76.4807 233.784 90.483 233.784V227.784ZM55.1025 220.979C44.8459 216.456 36.8276 210.232 30.9415 202.342L26.1324 205.93C32.7084 214.745 41.5935 221.58 52.6815 226.469L55.1025 220.979ZM30.9574 202.364C25.166 194.455 22.0319 185.293 21.5911 174.778L15.5964 175.029C16.0837 186.654 19.5783 196.98 26.1165 205.909L30.9574 202.364ZM18.5938 177.903H49.8153V171.903H18.5938V177.903ZM46.8218 175.101C47.2585 181.724 49.4971 187.565 53.5619 192.517L58.1995 188.71C54.9726 184.779 53.1676 180.148 52.8088 174.706L46.8218 175.101ZM53.5932 192.555C57.6581 197.345 62.9188 200.995 69.2836 203.541L71.5119 197.97C65.9449 195.743 61.5275 192.632 58.1682 188.673L53.5932 192.555ZM69.2836 203.541C75.6484 206.087 82.6619 207.335 90.2841 207.335V201.335C83.323 201.335 77.0789 200.197 71.5119 197.97L69.2836 203.541ZM90.2841 207.335C98.6527 207.335 106.179 205.882 112.797 202.893L110.328 197.425C104.616 200.004 97.9572 201.335 90.2841 201.335V207.335ZM112.786 202.898C119.448 199.922 124.768 195.72 128.629 190.257L123.729 186.794C120.563 191.274 116.139 194.828 110.339 197.42L112.786 202.898ZM128.64 190.242C132.529 184.665 134.449 178.257 134.449 171.125H128.449C128.449 177.118 126.856 182.31 123.718 186.81L128.64 190.242ZM134.449 171.125C134.449 163.754 132.543 157.155 128.66 151.442L123.698 154.814C126.842 159.441 128.449 164.841 128.449 171.125H134.449ZM128.685 151.478C124.872 145.686 119.315 141.234 112.187 138.058L109.745 143.539C116.007 146.328 120.592 150.096 123.673 154.777L128.685 151.478ZM112.197 138.063C105.085 134.862 96.6207 133.324 86.9034 133.324V139.324C96.0119 139.324 103.589 140.769 109.735 143.534L112.197 138.063ZM86.9034 133.324H69.7017V139.324H86.9034V133.324ZM72.7017 136.324V111.267H66.7017V136.324H72.7017ZM69.7017 114.267H86.9034V108.267H69.7017V114.267ZM86.9034 114.267C94.8202 114.267 101.905 112.842 108.081 109.898L105.499 104.482C100.273 106.974 94.1002 108.267 86.9034 108.267V114.267ZM108.069 109.904C114.279 106.977 119.225 102.858 122.803 97.5271L117.822 94.1831C114.904 98.5299 110.835 101.968 105.511 104.477L108.069 109.904ZM122.814 97.5114C126.424 92.0593 128.185 85.7345 128.185 78.6534H122.185C122.185 84.6973 120.697 89.8403 117.811 94.1988L122.814 97.5114ZM128.185 78.6534C128.185 71.89 126.649 65.8594 123.465 60.6769L118.353 63.8174C120.87 67.9153 122.185 72.8222 122.185 78.6534H128.185ZM123.491 60.7197C120.4 55.4948 115.988 51.4339 110.346 48.5408L107.608 53.8797C112.308 56.2896 115.85 59.5867 118.327 63.7746L123.491 60.7197ZM110.36 48.548C104.748 45.6326 98.2222 44.2329 90.8807 44.2329V50.2329C97.4596 50.2329 102.998 51.4848 107.594 53.8724L110.36 48.548ZM90.8807 44.2329C83.8721 44.2329 77.2724 45.5317 71.1128 48.1512L73.461 53.6726C78.8356 51.3869 84.6317 50.2329 90.8807 50.2329V44.2329ZM71.1285 48.1446C64.9965 50.7115 59.9343 54.4544 56.0171 59.3872L60.7158 63.1185C63.9577 59.0361 68.1758 55.8851 73.4453 53.6793L71.1285 48.1446ZM56.0307 59.3703C52.0108 64.3579 49.8919 70.3252 49.6021 77.1338L55.5967 77.3889C55.8373 71.7354 57.563 67.0304 60.7023 63.1354L56.0307 59.3703ZM52.5994 74.2614H22.8693V80.2614H52.5994V74.2614ZM25.868 77.3517C26.1822 66.919 29.2476 57.8395 35.0274 50.0088L30.1999 46.4457C23.6502 55.3196 20.2193 65.5961 19.8707 77.171L25.868 77.3517ZM35.0182 50.0211C40.9267 42.1012 48.7381 35.8775 58.5288 31.3636L56.0167 25.9148C45.3907 30.8138 36.7627 37.6487 30.2091 46.4334L35.0182 50.0211ZM58.5288 31.3636C68.3023 26.8576 79.2025 24.5795 91.2784 24.5795V18.5795C78.4301 18.5795 66.6598 21.0079 56.0167 25.9148L58.5288 31.3636ZM91.2784 24.5795C103.946 24.5795 114.705 27.0536 123.663 31.8772L126.508 26.5944C116.507 21.2097 104.729 18.5795 91.2784 18.5795V24.5795ZM123.685 31.8889C132.8 36.6998 139.739 43.0718 144.603 50.9905L149.715 47.8504C144.238 38.9319 136.461 31.8475 126.486 26.5826L123.685 31.8889ZM144.612 51.005C149.546 58.9374 151.977 67.5942 151.915 77.0426L157.915 77.0824C157.985 66.5118 155.246 56.7406 149.706 47.8359L144.612 51.005ZM151.915 77.0799C151.978 87.8735 148.981 96.8568 143.036 104.211L147.702 107.982C154.618 99.4273 157.985 89.0545 157.915 77.0451L151.915 77.0799ZM143.027 104.223C137.101 111.63 129.196 116.63 119.17 119.199L120.659 125.011C131.846 122.145 140.911 116.472 147.712 107.971L143.027 104.223ZM116.915 122.105V123.696H122.915V122.105H116.915ZM119.464 126.662C132.422 128.631 142.187 133.721 149.055 141.753L153.615 137.854C145.635 128.52 134.453 122.871 120.365 120.73L119.464 126.662ZM149.064 141.763C156.023 149.831 159.535 159.875 159.472 172.104L165.472 172.135C165.541 158.644 161.629 147.144 153.607 137.844L149.064 141.763ZM159.472 172.137C159.534 182.731 156.601 192.157 150.678 200.512L155.572 203.982C162.244 194.572 165.541 183.913 165.472 172.102L159.472 172.137ZM150.669 200.524C144.767 208.938 136.673 215.61 126.29 220.515L128.852 225.94C140.079 220.636 149.021 213.321 155.581 203.97L150.669 200.524ZM126.303 220.508C115.957 225.333 104.038 227.784 90.483 227.784V233.784C104.768 233.784 117.576 231.198 128.839 225.946L126.303 220.508Z" fill="#BDBDBD" mask="url(#path-1-outside-1_727_703)"/>
</svg>
