<svg width="148" height="252" viewBox="0 0 148 252" fill="none" xmlns="http://www.w3.org/2000/svg">
<mask id="path-1-outside-1_727_716" maskUnits="userSpaceOnUse" x="9" y="21" width="142" height="210" fill="black">
<rect fill="white" x="9" y="21" width="142" height="210"/>
<path d="M26.4489 228L115.341 52.2045V50.7131H12.5284V24.3636H147.159V51.6079L58.5653 228H26.4489Z"/>
</mask>
<path d="M26.4489 228L23.7717 226.646L21.5702 231H26.4489V228ZM115.341 52.2045L118.018 53.5583L118.341 52.9199V52.2045H115.341ZM115.341 50.7131H118.341V47.7131H115.341V50.7131ZM12.5284 50.7131H9.52841V53.7131H12.5284V50.7131ZM12.5284 24.3636V21.3636H9.52841V24.3636H12.5284ZM147.159 24.3636H150.159V21.3636H147.159V24.3636ZM147.159 51.6079L149.84 52.9544L150.159 52.319V51.6079H147.159ZM58.5653 228V231H60.4157L61.2462 229.346L58.5653 228ZM29.1261 229.354L118.018 53.5583L112.664 50.8508L23.7717 226.646L29.1261 229.354ZM118.341 52.2045V50.7131H112.341V52.2045H118.341ZM115.341 47.7131H12.5284V53.7131H115.341V47.7131ZM15.5284 50.7131V24.3636H9.52841V50.7131H15.5284ZM12.5284 27.3636H147.159V21.3636H12.5284V27.3636ZM144.159 24.3636V51.6079H150.159V24.3636H144.159ZM144.478 50.2615L55.8845 226.654L61.2462 229.346L149.84 52.9544L144.478 50.2615ZM58.5653 225H26.4489V231H58.5653V225Z" fill="#BDBDBD" mask="url(#path-1-outside-1_727_716)"/>
</svg>
